<svg width="24" height="24" viewBox="0 0 24 24" fill="none" xmlns="http://www.w3.org/2000/svg">
<path d="M18.5 12C18.5 11.337 18.7634 10.7011 19.2322 10.2322C19.7011 9.76339 20.337 9.5 21 9.5V7C21 6.73478 20.8946 6.48043 20.7071 6.29289C20.5196 6.10536 20.2652 6 20 6H4C3.73478 6 3.48043 6.10536 3.29289 6.29289C3.10536 6.48043 3 6.73478 3 7V9.5C3.66304 9.5 4.29893 9.76339 4.76777 10.2322C5.23661 10.7011 5.5 11.337 5.5 12C5.5 12.663 5.23661 13.2989 4.76777 13.7678C4.29893 14.2366 3.66304 14.5 3 14.5V17C3 17.2652 3.10536 17.5196 3.29289 17.7071C3.48043 17.8946 3.73478 18 4 18H20C20.2652 18 20.5196 17.8946 20.7071 17.7071C20.8946 17.5196 21 17.2652 21 17V14.5C20.337 14.5 19.7011 14.2366 19.2322 13.7678C18.7634 13.2989 18.5 12.663 18.5 12Z" stroke="#919191" stroke-width="2" stroke-linecap="round" stroke-linejoin="round"/>
</svg>
