<svg width="24" height="24" viewBox="0 0 24 24" fill="none" xmlns="http://www.w3.org/2000/svg">
<path d="M6 12C6.263 12 6.524 11.94 6.767 11.825C7.01506 11.7077 7.23631 11.5405 7.417 11.334C7.603 11.124 7.75 10.874 7.85 10.6C7.95 10.326 8 10.032 8 9.73601C7.99526 10.32 8.20361 10.8856 8.586 11.327C8.961 11.749 9.47 11.986 10 11.986C10.53 11.986 11.04 11.749 11.414 11.327C11.7964 10.8856 12.0047 10.32 12 9.73601C11.9953 10.32 12.2036 10.8856 12.586 11.327C12.961 11.749 13.47 11.986 14 11.986C14.53 11.986 15.04 11.749 15.414 11.327C15.7964 10.8856 16.0047 10.32 16 9.73601C16 10.031 16.052 10.324 16.152 10.597C16.252 10.87 16.4 11.118 16.586 11.327C16.7667 11.5323 16.9876 11.6984 17.235 11.815C17.4745 11.9268 17.7357 11.9847 18 11.9847C18.2643 11.9847 18.5255 11.9268 18.765 11.815C19.0123 11.6978 19.2334 11.5318 19.415 11.327C19.6 11.118 19.747 10.87 19.848 10.597C19.948 10.324 20 10.031 20 9.73601C20 8.76201 18.892 5.88601 18.382 4.61501C18.3084 4.43262 18.1817 4.27652 18.0184 4.16688C17.8551 4.05724 17.6627 3.99912 17.466 4.00001H6.456C6.25351 3.99902 6.05563 4.06039 5.88924 4.17579C5.72285 4.29119 5.59603 4.45502 5.526 4.64501C5.045 5.96201 4 8.90501 4 9.73601C4.023 10.326 4.241 10.884 4.611 11.303C4.981 11.721 5.476 11.97 6 12ZM4.837 11.524C5.15319 11.8199 5.56708 11.9893 6 12C6.328 12 6.651 11.909 6.94 11.734C7.23711 11.5528 7.48453 11.3006 7.66 11H8.341C8.51591 11.3003 8.76262 11.5525 9.059 11.734C9.349 11.909 9.672 12 10.001 12C10.329 12 10.652 11.909 10.941 11.734C11.231 11.56 11.478 11.307 11.66 11H12.341C12.5162 11.3004 12.7633 11.5527 13.06 11.734C13.349 11.909 13.672 12 14 12C14.329 12 14.652 11.909 14.942 11.734C15.232 11.56 15.478 11.307 15.66 11H16.341C16.524 11.307 16.771 11.56 17.06 11.734C17.35 11.908 17.673 12 18.001 12C18.3824 11.997 18.7532 11.8742 19.061 11.649M5 12V19C5 19.2652 5.10536 19.5196 5.29289 19.7071C5.48043 19.8947 5.73478 20 6 20H8V15H11V20H18C18.2652 20 18.5196 19.8947 18.7071 19.7071C18.8946 19.5196 19 19.2652 19 19V12M14 15V17H16V15H14Z" stroke="#919191" stroke-width="2" stroke-linecap="round" stroke-linejoin="round"/>
</svg>
