<svg width="16" height="16" viewBox="0 0 16 16" fill="none" xmlns="http://www.w3.org/2000/svg">
<path d="M7.99992 14.6666C4.31802 14.6666 1.33325 11.6818 1.33325 7.99998C1.33325 4.31808 4.31802 1.33331 7.99992 1.33331C11.6818 1.33331 14.6666 4.31808 14.6666 7.99998C14.6666 11.6818 11.6818 14.6666 7.99992 14.6666ZM7.99992 13.3333C10.9455 13.3333 13.3333 10.9455 13.3333 7.99998C13.3333 5.05446 10.9455 2.66665 7.99992 2.66665C5.0544 2.66665 2.66659 5.05446 2.66659 7.99998C2.66659 10.9455 5.0544 13.3333 7.99992 13.3333ZM8.66658 7.99998H11.3333V9.33331H7.33325V4.66665H8.66658V7.99998Z" fill="#585456"/>
</svg>
