<svg width="22" height="21" viewBox="0 0 22 21" fill="none" xmlns="http://www.w3.org/2000/svg">
<path d="M9.9042 0.10022L19.8037 1.51443L21.2179 11.414L12.0255 20.6063C11.635 20.9969 11.0019 20.9969 10.6113 20.6063L0.711843 10.7069C0.321313 10.3163 0.321313 9.68317 0.711843 9.29257L9.9042 0.10022ZM10.6113 2.22154L2.83316 9.99967L11.3184 18.485L19.0966 10.7069L18.036 3.2822L10.6113 2.22154ZM12.7327 8.58547C11.9516 7.80445 11.9516 6.53812 12.7327 5.75707C13.5137 4.97603 14.78 4.97603 15.5611 5.75707C16.3421 6.53812 16.3421 7.80445 15.5611 8.58547C14.78 9.36657 13.5137 9.36657 12.7327 8.58547Z" fill="#FF4603"/>
</svg>
