<svg width="18" height="18" viewBox="0 0 18 18" fill="none" xmlns="http://www.w3.org/2000/svg">
<path d="M12.7501 4.5H16.5001V6H15.0001V15.75C15.0001 16.1642 14.6643 16.5 14.2501 16.5H3.75006C3.33585 16.5 3.00006 16.1642 3.00006 15.75V6H1.50006V4.5H5.25006V2.25C5.25006 1.83579 5.58585 1.5 6.00006 1.5H12.0001C12.4143 1.5 12.7501 1.83579 12.7501 2.25V4.5ZM13.5001 6H4.50006V15H13.5001V6ZM6.75006 8.25H8.25006V12.75H6.75006V8.25ZM9.75006 8.25H11.2501V12.75H9.75006V8.25ZM6.75006 3V4.5H11.2501V3H6.75006Z" fill="white"/>
</svg>
