<svg width="10" height="9" viewBox="0 0 10 9" fill="none" xmlns="http://www.w3.org/2000/svg">
<path d="M4.16211 0.704102C4.37377 0.201448 5.09867 0.201656 5.31055 0.704102L6.1416 2.67969L6.21875 2.86328L6.41797 2.87891L8.57422 3.04883C9.13005 3.09331 9.34163 3.77038 8.92871 4.12012L7.28613 5.51172L7.13281 5.64258L7.17969 5.83887L7.68164 7.91797C7.80673 8.43741 7.2318 8.8689 6.75195 8.5791L4.90625 7.46484L4.73633 7.3623L4.56738 7.46484L2.72168 8.5791C2.24163 8.86902 1.66693 8.43673 1.79199 7.91797L2.29395 5.83789L2.34082 5.6416L2.1875 5.51074L0.543945 4.12012C0.130907 3.77011 0.34393 3.09278 0.899414 3.04883L3.05566 2.87793L3.25488 2.8623L3.33203 2.67871L4.16211 0.705078V0.704102Z" stroke="white" stroke-width="0.654545"/>
</svg>
