<svg width="310" height="310" viewBox="0 0 310 310" fill="none" xmlns="http://www.w3.org/2000/svg">
<g clip-path="url(#clip0_8676_139)">
<path d="M199.291 276.41C195.554 283.704 187.709 282.611 181.119 277.942C179.955 279.914 178.227 281.491 176.158 282.472C163.169 289.019 150.769 265.862 150.25 264.869C150.194 264.763 150.16 264.647 150.148 264.527C150.137 264.408 150.15 264.288 150.185 264.173C150.221 264.058 150.279 263.952 150.355 263.86C150.432 263.767 150.526 263.691 150.632 263.635C150.846 263.522 151.097 263.499 151.328 263.571C151.559 263.642 151.753 263.803 151.866 264.017C151.988 264.242 163.994 286.638 175.369 280.851C177.194 279.991 178.702 278.579 179.679 276.815C175.053 273.019 171.715 267.662 173.553 264.096C174.578 262.104 176.042 262.016 176.822 262.142C180.44 262.735 184.093 270.124 181.911 276.265C186.56 279.627 193.01 281.849 196.609 277.301C197.018 276.784 197.377 276.228 197.682 275.643C192.303 272.675 189.598 266.355 190.856 260.856C191.422 258.382 192.61 257.7 193.502 257.567C197.461 256.968 202.778 266.738 200.025 274.736C201.545 275.261 203.156 275.467 204.759 275.342C206.362 275.218 207.922 274.764 209.342 274.011C217.635 269.927 217.325 248.427 216.329 239.361C216.314 239.129 216.389 238.901 216.539 238.723C216.688 238.546 216.9 238.432 217.13 238.407C217.361 238.381 217.592 238.446 217.777 238.586C217.961 238.727 218.084 238.933 218.12 239.162C218.253 240.413 221.379 270.098 210.135 275.624C208.482 276.504 206.663 277.028 204.796 277.163C202.928 277.299 201.053 277.042 199.291 276.41ZM193.616 259.392C191.794 260.117 190.824 269.679 198.358 273.985C200.725 266.689 195.478 258.65 193.588 259.403L193.616 259.392ZM175.977 263.997C175.58 264.198 175.267 264.535 175.097 264.947C173.893 267.29 176.246 271.613 180.331 275.096C181.969 269.34 177.873 263.242 175.977 263.997Z" fill="#CA6140"/>
<path d="M219.566 235.133C223.089 233.73 224.808 229.737 223.405 226.214C222.003 222.691 218.009 220.972 214.486 222.375C210.963 223.778 209.245 227.771 210.647 231.294C212.05 234.817 216.043 236.536 219.566 235.133Z" fill="#CA6140"/>
<path d="M117.985 87.8699C115.119 86.8084 112.628 80.3711 112.65 72.4569C104.808 67.1792 97.3041 69.1045 92.3344 76.2316C92.2668 76.3283 92.1808 76.4107 92.0813 76.4741C91.9818 76.5376 91.8709 76.5808 91.7547 76.6013C91.6385 76.6219 91.5194 76.6193 91.4042 76.5938C91.289 76.5684 91.18 76.5204 91.0833 76.4528C90.9866 76.3852 90.9042 76.2992 90.8408 76.1997C90.7773 76.1002 90.7341 75.9892 90.7136 75.873C90.693 75.7568 90.6956 75.6378 90.721 75.5226C90.7465 75.4074 90.7945 75.2983 90.8621 75.2016C96.429 67.2176 104.697 65.542 112.709 70.3613C112.88 67.3386 113.42 64.3482 114.318 61.4569C116.983 52.9601 122.253 51.4158 125.167 51.272C128.218 51.0936 131.463 52.2388 134.266 54.2705C137.644 51.9676 142.34 50.4044 148.256 49.5998C154.145 48.8771 160.097 48.8202 165.999 49.4301C166.123 49.4354 166.245 49.4663 166.357 49.5209C166.468 49.5755 166.568 49.6526 166.648 49.7473C166.729 49.842 166.789 49.9523 166.824 50.0713C166.86 50.1903 166.871 50.3154 166.856 50.4388C166.842 50.5622 166.801 50.6813 166.738 50.7884C166.675 50.8956 166.591 50.9886 166.49 51.0616C166.39 51.1346 166.275 51.186 166.154 51.2126C166.033 51.2392 165.907 51.2405 165.785 51.2163C165.532 51.1867 145.912 48.9822 135.734 55.4522C137.726 57.2207 139.323 59.3898 140.419 61.8177C143.856 69.5339 135.88 76.8349 130.973 74.2985C129.453 73.5091 127.09 71.0936 128.098 63.8039C128.552 60.5169 130.229 57.522 132.794 55.4172C130.609 53.8456 127.973 53.0265 125.283 53.0835C121.001 53.3285 117.816 56.4277 116.06 62.0342C115.088 65.1131 114.55 68.3126 114.462 71.5401C119.98 75.5796 123.326 81.7553 121.703 85.536C120.992 87.2203 119.714 88.5112 117.985 87.8699ZM114.494 73.8473C114.767 80.5229 116.897 85.5464 118.61 86.181C119.229 86.4102 119.741 85.5678 120.062 84.8206C121.226 82.096 118.631 77.3292 114.494 73.8473ZM134.235 56.4988C131.846 58.3419 130.277 61.0496 129.866 64.0384C129.226 68.5684 129.926 71.7176 131.789 72.683C135.119 74.4007 141.539 68.7555 138.769 62.5336C137.723 60.2109 136.174 58.1497 134.235 56.4988Z" fill="#CA6140"/>
<path d="M85.5239 95.6919C89.3825 94.1556 91.265 89.7822 89.7287 85.9237C88.1924 82.0651 83.819 80.1826 79.9605 81.7189C76.102 83.2552 74.2194 87.6286 75.7557 91.4871C77.292 95.3457 81.6654 97.2282 85.5239 95.6919Z" fill="#CA6140"/>
<path d="M34.9048 98.9607L43.3084 97.9869C43.6737 97.942 44.0436 98.0194 44.3602 98.2069C44.6769 98.3945 44.9225 98.6817 45.0586 99.0236C45.1948 99.3655 45.2138 99.7429 45.1127 100.097C45.0116 100.451 44.7962 100.761 44.5 100.98L37.7246 106.043C37.4813 106.22 37.2901 106.46 37.171 106.737C37.0519 107.013 37.0093 107.317 37.0475 107.616L38.0269 116.017C38.0694 116.382 37.9903 116.751 37.802 117.067C37.6137 117.382 37.3266 117.627 36.9852 117.763C36.6437 117.899 36.267 117.918 35.9133 117.819C35.5597 117.719 35.2487 117.505 35.0287 117.211L29.9653 110.436C29.7935 110.194 29.5603 110.002 29.2897 109.881C29.0191 109.76 28.7209 109.713 28.4261 109.745L20.0191 110.727C19.6538 110.772 19.2839 110.694 18.9673 110.507C18.6506 110.319 18.405 110.032 18.2689 109.69C18.1328 109.348 18.1137 108.971 18.2148 108.617C18.3159 108.263 18.5314 107.953 18.8275 107.734L25.6063 102.663C25.8412 102.49 26.0258 102.257 26.1412 101.989C26.2566 101.721 26.2987 101.427 26.2631 101.137L25.2837 92.7358C25.2412 92.3707 25.3203 92.0019 25.5086 91.6863C25.6969 91.3708 25.984 91.1261 26.3254 90.9902C26.6668 90.8542 27.0435 90.8346 27.3972 90.9344C27.7509 91.0341 28.0619 91.2477 28.2819 91.542L33.3452 98.3174C33.5243 98.5538 33.7633 98.7381 34.0375 98.8512C34.3117 98.9643 34.6111 99.0021 34.9048 98.9607ZM265.717 238.042L274.119 237.062C274.484 237.018 274.854 237.095 275.171 237.282C275.487 237.47 275.733 237.757 275.869 238.099C276.005 238.441 276.024 238.818 275.923 239.172C275.822 239.526 275.606 239.837 275.31 240.055L268.535 245.118C268.301 245.295 268.117 245.529 268.001 245.798C267.885 246.067 267.842 246.361 267.875 246.652L268.85 255.042C268.895 255.408 268.817 255.777 268.63 256.094C268.442 256.411 268.155 256.656 267.813 256.792C267.471 256.929 267.094 256.948 266.74 256.847C266.386 256.745 266.076 256.53 265.857 256.234L260.794 249.458C260.618 249.224 260.384 249.04 260.115 248.925C259.846 248.809 259.551 248.765 259.26 248.798L250.859 249.778C250.493 249.823 250.124 249.745 249.807 249.558C249.49 249.37 249.245 249.083 249.108 248.741C248.972 248.399 248.953 248.022 249.054 247.668C249.156 247.314 249.371 247.003 249.667 246.785L256.447 241.733C256.681 241.557 256.865 241.323 256.981 241.054C257.096 240.785 257.14 240.49 257.107 240.199L256.128 231.798C256.083 231.433 256.16 231.063 256.348 230.746C256.535 230.429 256.823 230.184 257.164 230.048C257.506 229.912 257.884 229.893 258.238 229.994C258.592 230.095 258.902 230.31 259.12 230.606L264.173 237.354C264.346 237.594 264.581 237.785 264.852 237.906C265.124 238.027 265.422 238.074 265.717 238.042ZM125.438 287.437L133.84 286.457C134.205 286.415 134.574 286.494 134.889 286.682C135.205 286.87 135.449 287.157 135.585 287.499C135.721 287.84 135.741 288.217 135.641 288.571C135.541 288.924 135.328 289.235 135.034 289.455L128.258 294.519C128.017 294.691 127.827 294.925 127.705 295.195C127.584 295.465 127.536 295.763 127.568 296.058L128.549 304.465C128.594 304.83 128.517 305.2 128.329 305.517C128.142 305.833 127.855 306.079 127.513 306.215C127.171 306.351 126.793 306.37 126.439 306.269C126.086 306.168 125.775 305.953 125.557 305.656L120.486 298.878C120.311 298.644 120.079 298.46 119.811 298.345C119.543 298.229 119.249 298.187 118.96 298.221L110.603 299.182C110.238 299.225 109.869 299.146 109.554 298.957C109.238 298.769 108.994 298.482 108.858 298.141C108.722 297.799 108.702 297.423 108.802 297.069C108.902 296.715 109.115 296.404 109.41 296.184L116.185 291.121C116.418 290.946 116.602 290.713 116.717 290.446C116.832 290.178 116.875 289.885 116.842 289.595L115.866 281.186C115.821 280.82 115.898 280.451 116.086 280.134C116.273 279.817 116.56 279.572 116.902 279.436C117.244 279.299 117.622 279.28 117.976 279.382C118.329 279.483 118.64 279.698 118.858 279.994L123.924 286.775C124.099 287.006 124.33 287.188 124.595 287.304C124.86 287.42 125.15 287.465 125.438 287.437ZM204.046 33.7668L210.199 33.0503C210.47 33.008 210.748 33.059 210.986 33.195C211.224 33.331 211.409 33.5439 211.511 33.7988C211.612 34.0538 211.624 34.3356 211.545 34.5982C211.465 34.8608 211.299 35.0885 211.073 35.2441L206.111 38.9533C205.939 39.0805 205.804 39.2509 205.72 39.447C205.636 39.6431 205.604 39.8581 205.63 40.0701L206.346 46.2236C206.389 46.4947 206.338 46.7721 206.202 47.0105C206.066 47.2488 205.853 47.4339 205.598 47.5354C205.343 47.6369 205.061 47.6488 204.799 47.5692C204.536 47.4895 204.308 47.3231 204.153 47.0971L200.443 42.1351C200.316 41.9636 200.146 41.8288 199.95 41.7444C199.754 41.66 199.539 41.6289 199.327 41.6544L193.173 42.3709C192.902 42.4132 192.625 42.3622 192.386 42.2262C192.148 42.0902 191.963 41.8773 191.861 41.6224C191.76 41.3675 191.748 41.0856 191.828 40.823C191.907 40.5604 192.074 40.3327 192.3 40.1771L197.262 36.4679C197.433 36.3407 197.568 36.1704 197.652 35.9742C197.737 35.7781 197.768 35.5631 197.742 35.3511L197.026 29.1977C196.984 28.9265 197.035 28.6491 197.171 28.4108C197.307 28.1724 197.519 27.9874 197.774 27.8859C198.029 27.7844 198.311 27.7724 198.574 27.8521C198.836 27.9317 199.064 28.0982 199.22 28.3242L202.929 33.2861C203.056 33.4576 203.226 33.5924 203.423 33.6768C203.619 33.7612 203.834 33.7923 204.046 33.7668ZM294.293 196.823L300.446 196.107C300.717 196.065 300.995 196.116 301.233 196.252C301.471 196.387 301.656 196.6 301.758 196.855C301.859 197.11 301.871 197.392 301.792 197.655C301.712 197.917 301.545 198.145 301.319 198.301L296.358 202.01C296.186 202.137 296.051 202.307 295.967 202.503C295.882 202.7 295.851 202.915 295.877 203.127L296.593 209.28C296.636 209.551 296.585 209.829 296.449 210.067C296.313 210.305 296.1 210.49 295.845 210.592C295.59 210.693 295.308 210.705 295.045 210.626C294.783 210.546 294.555 210.38 294.399 210.154L290.69 205.192C290.563 205.02 290.393 204.885 290.197 204.801C290.001 204.717 289.786 204.685 289.574 204.711L283.42 205.427C283.149 205.47 282.872 205.419 282.633 205.283C282.395 205.147 282.21 204.934 282.108 204.679C282.007 204.424 281.995 204.142 282.074 203.88C282.154 203.617 282.321 203.389 282.547 203.234L287.509 199.524C287.68 199.397 287.815 199.227 287.899 199.031C287.984 198.835 288.015 198.62 287.989 198.408L287.273 192.254C287.23 191.983 287.281 191.706 287.417 191.467C287.553 191.229 287.766 191.044 288.021 190.942C288.276 190.841 288.558 190.829 288.821 190.909C289.083 190.988 289.311 191.155 289.467 191.381L293.176 196.343C293.303 196.514 293.473 196.649 293.669 196.733C293.866 196.818 294.081 196.849 294.293 196.823ZM80.5741 284.028L86.7276 283.312C86.9987 283.269 87.2761 283.32 87.5145 283.456C87.7528 283.592 87.9379 283.805 88.0394 284.06C88.1409 284.315 88.1528 284.597 88.0731 284.859C87.9935 285.122 87.8271 285.35 87.6011 285.505L82.6391 289.215C82.4676 289.342 82.3328 289.512 82.2484 289.708C82.164 289.904 82.1329 290.119 82.1584 290.331L82.8816 296.502C82.9239 296.773 82.8729 297.05 82.7369 297.289C82.6009 297.527 82.3881 297.712 82.1331 297.814C81.8782 297.915 81.5963 297.927 81.3337 297.847C81.0712 297.768 80.8434 297.601 80.6878 297.375L76.9787 292.413C76.8507 292.241 76.6793 292.106 76.4821 292.022C76.2849 291.938 76.0689 291.908 75.8562 291.935L69.6994 292.627C69.4283 292.669 69.1509 292.618 68.9125 292.482C68.6742 292.346 68.4891 292.133 68.3876 291.878C68.2861 291.623 68.2742 291.341 68.3538 291.079C68.4335 290.816 68.5999 290.588 68.8259 290.433L73.7822 286.726C73.9561 286.598 74.0925 286.425 74.1772 286.226C74.2619 286.028 74.2919 285.81 74.2641 285.596L73.5476 279.442C73.5053 279.171 73.5563 278.894 73.6923 278.655C73.8283 278.417 74.0412 278.232 74.2961 278.13C74.551 278.029 74.8329 278.017 75.0955 278.097C75.3581 278.176 75.5858 278.343 75.7414 278.569L79.4506 283.531C79.5764 283.706 79.747 283.845 79.9445 283.932C80.1421 284.02 80.3595 284.053 80.5741 284.028ZM71.3107 50.1081L77.4641 49.3916C77.7352 49.3492 78.0127 49.4003 78.251 49.5362C78.4893 49.6722 78.6744 49.8851 78.7759 50.1401C78.8774 50.395 78.8893 50.6769 78.8097 50.9394C78.7301 51.202 78.5636 51.4298 78.3376 51.5854L73.3757 55.2945C73.2028 55.4213 73.0667 55.5917 72.9813 55.7883C72.8958 55.9849 72.8641 56.2007 72.8893 56.4136L73.6058 62.5671C73.6482 62.8382 73.5972 63.1156 73.4612 63.3539C73.3252 63.5923 73.1123 63.7774 72.8573 63.8789C72.6024 63.9804 72.3206 63.9923 72.058 63.9126C71.7954 63.833 71.5676 63.6665 71.412 63.4405L67.7029 58.4786C67.5756 58.3071 67.4053 58.1723 67.2092 58.0879C67.013 58.0035 66.7981 57.9724 66.5861 57.9979L60.4326 58.7144C60.1615 58.7567 59.884 58.7057 59.6457 58.5697C59.4074 58.4337 59.2223 58.2208 59.1208 57.9659C59.0193 57.7109 59.0074 57.4291 59.087 57.1665C59.1666 56.9039 59.3331 56.6762 59.5591 56.5206L64.521 52.8114C64.6925 52.6842 64.8273 52.5139 64.9118 52.3177C64.9962 52.1216 65.0272 51.9066 65.0018 51.6946L64.2853 45.5411C64.2429 45.27 64.294 44.9926 64.4299 44.7542C64.5659 44.5159 64.7788 44.3308 65.0338 44.2293C65.2887 44.1278 65.5705 44.1159 65.8331 44.1956C66.0957 44.2752 66.3235 44.4416 66.4791 44.6676L70.1882 49.6296C70.3162 49.8016 70.4876 49.9365 70.6848 50.0205C70.882 50.1046 71.098 50.1348 71.3107 50.1081Z" fill="#FFECDC"/>
<path d="M156.117 228.241C151.067 221.975 142.984 219.237 135.908 222.054C128.831 224.872 124.842 232.417 125.482 240.439L64.5607 264.695L18.5391 149.108L78.8638 125.089C83.6737 132.897 92.7804 136.636 100.65 133.502C108.52 130.369 112.565 121.394 110.691 112.417L248.869 57.4007L294.89 172.987L156.117 228.241Z" fill="#E2E8EE"/>
<path d="M134.488 220.241C134.245 220.338 133.973 220.334 133.733 220.23C133.493 220.127 133.303 219.932 133.206 219.689L128.223 207.173C128.126 206.93 128.13 206.658 128.233 206.418C128.337 206.177 128.532 205.988 128.775 205.891C129.018 205.794 129.29 205.798 129.53 205.901C129.77 206.005 129.96 206.2 130.057 206.443L135.04 218.959C135.137 219.202 135.133 219.474 135.03 219.714C134.926 219.955 134.731 220.144 134.488 220.241ZM124.522 195.209C124.278 195.305 124.007 195.302 123.766 195.198C123.526 195.095 123.336 194.9 123.24 194.657L118.256 182.141C118.159 181.898 118.163 181.626 118.267 181.385C118.37 181.145 118.565 180.956 118.808 180.859C119.051 180.762 119.323 180.766 119.563 180.869C119.804 180.973 119.993 181.167 120.09 181.411L125.073 193.927C125.168 194.169 125.163 194.44 125.06 194.679C124.956 194.918 124.761 195.107 124.519 195.203L124.522 195.209ZM114.555 170.176C114.312 170.273 114.04 170.27 113.8 170.166C113.559 170.063 113.37 169.868 113.273 169.625L108.287 157.103C108.19 156.86 108.194 156.588 108.298 156.348C108.401 156.107 108.596 155.918 108.839 155.821C109.082 155.724 109.354 155.728 109.594 155.831C109.835 155.935 110.024 156.13 110.121 156.373L115.107 168.894C115.203 169.138 115.2 169.409 115.096 169.65C114.993 169.89 114.798 170.08 114.555 170.176ZM104.586 145.139C104.343 145.235 104.071 145.232 103.831 145.128C103.59 145.025 103.401 144.83 103.304 144.587L98.3205 132.071C98.2237 131.828 98.2274 131.556 98.3309 131.315C98.4344 131.075 98.6292 130.886 98.8724 130.789C99.1155 130.692 99.3872 130.696 99.6276 130.799C99.868 130.903 100.058 131.097 100.154 131.341L105.138 143.857C105.235 144.1 105.231 144.372 105.127 144.612C105.024 144.852 104.829 145.042 104.586 145.139Z" fill="#94862E"/>
<path d="M72.2575 139.776L36.2899 154.097C33.5063 155.205 32.1482 158.36 33.2565 161.144L68.6036 249.921C69.712 252.704 72.867 254.062 75.6506 252.954L111.618 238.633C114.402 237.525 115.76 234.37 114.652 231.586L79.3045 142.809C78.1962 140.026 75.0411 138.668 72.2575 139.776Z" fill="#94862E"/>
<path d="M74.8586 147.962L39.4198 162.072C39.3407 162.103 39.2563 162.119 39.1712 162.118C39.0861 162.117 39.0021 162.099 38.924 162.065C38.8458 162.032 38.7751 161.983 38.7158 161.922C38.6564 161.861 38.6097 161.789 38.5782 161.71C38.5468 161.631 38.5312 161.546 38.5323 161.461C38.5335 161.376 38.5514 161.292 38.5851 161.214C38.6187 161.136 38.6674 161.065 38.7284 161.006C38.7894 160.946 38.8615 160.9 38.9405 160.868L74.3793 146.758C74.4583 146.727 74.5428 146.711 74.6279 146.712C74.7129 146.713 74.7969 146.731 74.8751 146.765C74.9532 146.798 75.024 146.847 75.0833 146.908C75.1426 146.969 75.1894 147.041 75.2208 147.12C75.2523 147.199 75.2679 147.284 75.2667 147.369C75.2656 147.454 75.2476 147.538 75.214 147.616C75.1804 147.694 75.1317 147.765 75.0707 147.824C75.0097 147.884 74.9376 147.93 74.8586 147.962ZM76.8497 152.963L41.4109 167.073C41.3306 167.114 41.2425 167.138 41.1523 167.144C41.0621 167.149 40.9718 167.135 40.8872 167.104C40.8025 167.072 40.7255 167.023 40.6609 166.96C40.5964 166.896 40.5458 166.82 40.5123 166.736C40.4789 166.653 40.4634 166.563 40.4669 166.472C40.4703 166.382 40.4926 166.293 40.5323 166.212C40.572 166.131 40.6282 166.059 40.6973 166.001C40.7665 165.943 40.8471 165.9 40.9338 165.875L76.3726 151.764C76.453 151.723 76.541 151.699 76.6312 151.694C76.7214 151.688 76.8117 151.702 76.8964 151.734C76.981 151.765 77.058 151.814 77.1226 151.878C77.1871 151.941 77.2378 152.017 77.2712 152.101C77.3046 152.185 77.3201 152.275 77.3167 152.365C77.3132 152.455 77.291 152.544 77.2513 152.625C77.2116 152.706 77.1553 152.778 77.0862 152.836C77.017 152.894 76.9365 152.937 76.8497 152.963ZM78.852 157.992L43.4132 172.102C43.3329 172.143 43.2448 172.167 43.1546 172.173C43.0644 172.178 42.9741 172.164 42.8895 172.133C42.8048 172.101 42.7278 172.052 42.6632 171.989C42.5987 171.925 42.5481 171.849 42.5146 171.765C42.4812 171.681 42.4657 171.591 42.4692 171.501C42.4726 171.411 42.4949 171.322 42.5346 171.241C42.5743 171.16 42.6305 171.088 42.6996 171.03C42.7688 170.972 42.8494 170.929 42.9361 170.904L78.3749 156.793C78.4553 156.752 78.5433 156.728 78.6335 156.723C78.7237 156.717 78.8141 156.731 78.8987 156.763C78.9833 156.794 79.0604 156.843 79.1249 156.906C79.1895 156.97 79.2401 157.046 79.2735 157.13C79.3069 157.214 79.3224 157.304 79.319 157.394C79.3155 157.484 79.2933 157.573 79.2536 157.654C79.2139 157.735 79.1576 157.807 79.0885 157.865C79.0193 157.923 78.9388 157.966 78.852 157.992ZM80.8364 162.975L45.3976 177.086C45.3173 177.127 45.2292 177.151 45.139 177.156C45.0488 177.162 44.9585 177.148 44.8738 177.116C44.7892 177.085 44.7122 177.036 44.6476 176.973C44.5831 176.909 44.5325 176.833 44.499 176.749C44.4656 176.665 44.4501 176.575 44.4535 176.485C44.457 176.395 44.4792 176.306 44.5189 176.225C44.5586 176.144 44.6149 176.072 44.684 176.014C44.7532 175.956 44.8337 175.913 44.9205 175.887L80.3593 161.777C80.4396 161.736 80.5277 161.712 80.6179 161.707C80.7081 161.701 80.7984 161.715 80.883 161.747C80.9677 161.778 81.0447 161.827 81.1093 161.89C81.1738 161.954 81.2244 162.03 81.2579 162.114C81.2913 162.198 81.3068 162.288 81.3034 162.378C81.2999 162.468 81.2776 162.557 81.238 162.638C81.1983 162.719 81.142 162.791 81.0729 162.849C81.0037 162.907 80.9231 162.95 80.8364 162.975ZM82.8297 167.982L47.3909 182.092C47.2313 182.156 47.0529 182.153 46.8951 182.085C46.7373 182.017 46.6129 181.889 46.5494 181.73C46.4858 181.57 46.4883 181.392 46.5562 181.234C46.6241 181.076 46.752 180.952 46.9116 180.888L82.3504 166.778C82.51 166.715 82.6884 166.717 82.8462 166.785C83.004 166.853 83.1284 166.981 83.192 167.14C83.2555 167.3 83.2531 167.478 83.1851 167.636C83.1172 167.794 82.9893 167.918 82.8297 167.982ZM84.8231 172.988L49.3843 187.099C49.2246 187.162 49.0463 187.16 48.8885 187.092C48.7306 187.024 48.6063 186.896 48.5427 186.736C48.4792 186.577 48.4816 186.398 48.5495 186.24C48.6175 186.083 48.7453 185.958 48.905 185.895L84.3438 171.785C84.5034 171.721 84.6817 171.723 84.8396 171.791C84.9974 171.859 85.1217 171.987 85.1853 172.147C85.2489 172.306 85.2464 172.485 85.1785 172.643C85.1105 172.8 84.9827 172.925 84.8231 172.988ZM86.8142 177.989L51.3754 192.099C51.295 192.141 51.207 192.165 51.1168 192.17C51.0266 192.175 50.9363 192.162 50.8516 192.13C50.767 192.098 50.69 192.049 50.6254 191.986C50.5609 191.923 50.5102 191.847 50.4768 191.763C50.4434 191.679 50.4279 191.589 50.4313 191.499C50.4348 191.409 50.457 191.32 50.4967 191.239C50.5364 191.158 50.5927 191.086 50.6618 191.028C50.731 190.969 50.8115 190.926 50.8983 190.901L86.3371 176.791C86.4174 176.75 86.5055 176.726 86.5957 176.72C86.6859 176.715 86.7762 176.729 86.8608 176.76C86.9455 176.792 87.0225 176.841 87.0871 176.904C87.1516 176.967 87.2022 177.043 87.2356 177.127C87.2691 177.211 87.2846 177.301 87.2811 177.392C87.2777 177.482 87.2554 177.57 87.2157 177.652C87.176 177.733 87.1198 177.805 87.0507 177.863C86.9815 177.921 86.9009 177.964 86.8142 177.989ZM88.8075 182.996L53.3687 197.106C53.2884 197.147 53.2003 197.171 53.1101 197.177C53.0199 197.182 52.9296 197.168 52.845 197.137C52.7603 197.105 52.6833 197.056 52.6187 196.993C52.5542 196.929 52.5036 196.853 52.4702 196.769C52.4367 196.686 52.4212 196.596 52.4247 196.505C52.4281 196.415 52.4504 196.326 52.4901 196.245C52.5298 196.164 52.586 196.092 52.6552 196.034C52.7243 195.976 52.8049 195.933 52.8917 195.908L88.3304 181.797C88.4108 181.756 88.4989 181.732 88.5891 181.727C88.6793 181.721 88.7696 181.735 88.8542 181.767C88.9388 181.798 89.0159 181.847 89.0804 181.911C89.145 181.974 89.1956 182.05 89.229 182.134C89.2624 182.218 89.2779 182.308 89.2745 182.398C89.2711 182.488 89.2488 182.577 89.2091 182.658C89.1694 182.739 89.1132 182.811 89.044 182.869C88.9748 182.927 88.8943 182.97 88.8075 182.996ZM90.8008 188.002L55.3621 202.112C55.2024 202.176 55.0241 202.173 54.8662 202.105C54.7084 202.037 54.5841 201.91 54.5205 201.75C54.4569 201.59 54.4594 201.412 54.5273 201.254C54.5953 201.096 54.7231 200.972 54.8828 200.908L90.3215 186.798C90.4812 186.735 90.6595 186.737 90.8173 186.805C90.9752 186.873 91.0995 187.001 91.1631 187.16C91.2267 187.32 91.2242 187.498 91.1563 187.656C91.0883 187.814 90.9605 187.938 90.8008 188.002ZM92.7942 193.008L57.3554 207.119C57.1958 207.182 57.0174 207.18 56.8596 207.112C56.7018 207.044 56.5774 206.916 56.5138 206.756C56.4503 206.597 56.4527 206.418 56.5207 206.261C56.5886 206.103 56.7165 205.978 56.8761 205.915L92.3149 191.805C92.4745 191.741 92.6529 191.744 92.8107 191.812C92.9685 191.879 93.0929 192.007 93.1564 192.167C93.22 192.327 93.2175 192.505 93.1496 192.663C93.0817 192.821 92.9538 192.945 92.7942 193.008ZM94.7875 198.015L59.3487 212.125C59.1891 212.189 59.0108 212.186 58.8529 212.118C58.6951 212.05 58.5707 211.922 58.5072 211.763C58.4436 211.603 58.4461 211.425 58.514 211.267C58.582 211.109 58.7098 210.985 58.8694 210.921L94.3082 196.811C94.4679 196.748 94.6462 196.75 94.804 196.818C94.9618 196.886 95.0862 197.014 95.1498 197.173C95.2133 197.333 95.2109 197.511 95.1429 197.669C95.075 197.827 94.9472 197.951 94.7875 198.015ZM96.7697 202.993L61.3309 217.103C61.2506 217.145 61.1625 217.169 61.0723 217.174C60.9821 217.179 60.8918 217.166 60.8071 217.134C60.7225 217.103 60.6455 217.053 60.5809 216.99C60.5164 216.927 60.4658 216.851 60.4323 216.767C60.3989 216.683 60.3834 216.593 60.3868 216.503C60.3903 216.413 60.4125 216.324 60.4522 216.243C60.4919 216.162 60.5482 216.09 60.6173 216.032C60.6865 215.973 60.767 215.93 60.8538 215.905L96.2926 201.795C96.3729 201.754 96.461 201.73 96.5512 201.724C96.6414 201.719 96.7317 201.733 96.8164 201.764C96.901 201.796 96.978 201.845 97.0426 201.908C97.1071 201.971 97.1577 202.047 97.1912 202.131C97.2246 202.215 97.2401 202.305 97.2367 202.396C97.2332 202.486 97.2109 202.574 97.1713 202.656C97.1316 202.737 97.0753 202.809 97.0062 202.867C96.937 202.925 96.8564 202.968 96.7697 202.993ZM98.772 208.022L63.3332 222.132C63.2529 222.174 63.1648 222.198 63.0746 222.203C62.9844 222.208 62.8941 222.195 62.8094 222.163C62.7248 222.131 62.6478 222.082 62.5832 222.019C62.5187 221.956 62.4681 221.88 62.4346 221.796C62.4012 221.712 62.3857 221.622 62.3891 221.532C62.3926 221.441 62.4148 221.353 62.4545 221.272C62.4942 221.191 62.5505 221.119 62.6196 221.06C62.6888 221.002 62.7693 220.959 62.8561 220.934L98.2949 206.824C98.3752 206.783 98.4633 206.758 98.5535 206.753C98.6437 206.748 98.734 206.761 98.8187 206.793C98.9033 206.825 98.9803 206.874 99.0449 206.937C99.1094 207 99.16 207.076 99.1935 207.16C99.2269 207.244 99.2424 207.334 99.239 207.425C99.2355 207.515 99.2132 207.603 99.1736 207.685C99.1339 207.766 99.0776 207.838 99.0085 207.896C98.9393 207.954 98.8588 207.997 98.772 208.022ZM100.765 213.029L65.3265 227.139C65.2462 227.18 65.1581 227.204 65.0679 227.21C64.9777 227.215 64.8874 227.201 64.8028 227.17C64.7182 227.138 64.6411 227.089 64.5766 227.026C64.512 226.962 64.4614 226.886 64.428 226.802C64.3946 226.719 64.3791 226.628 64.3825 226.538C64.3859 226.448 64.4082 226.359 64.4479 226.278C64.4876 226.197 64.5438 226.125 64.613 226.067C64.6821 226.009 64.7627 225.966 64.8495 225.941L100.288 211.83C100.369 211.789 100.457 211.765 100.547 211.76C100.637 211.754 100.727 211.768 100.812 211.8C100.897 211.831 100.974 211.88 101.038 211.943C101.103 212.007 101.153 212.083 101.187 212.167C101.22 212.251 101.236 212.341 101.232 212.431C101.229 212.521 101.207 212.61 101.167 212.691C101.127 212.772 101.071 212.844 101.002 212.902C100.933 212.96 100.852 213.003 100.765 213.029ZM102.759 218.035L67.3199 232.145C67.1602 232.209 66.9819 232.206 66.8241 232.138C66.6662 232.07 66.5419 231.943 66.4783 231.783C66.4148 231.623 66.4172 231.445 66.4851 231.287C66.5531 231.129 66.6809 231.005 66.8406 230.941L102.279 216.831C102.439 216.768 102.617 216.77 102.775 216.838C102.933 216.906 103.057 217.034 103.121 217.193C103.184 217.353 103.182 217.531 103.114 217.689C103.046 217.847 102.918 217.971 102.759 218.035ZM104.752 223.041L69.3132 237.152C69.1536 237.215 68.9752 237.213 68.8174 237.145C68.6596 237.077 68.5352 236.949 68.4717 236.789C68.4081 236.63 68.4106 236.451 68.4785 236.294C68.5464 236.136 68.6743 236.011 68.8339 235.948L104.273 221.838C104.432 221.774 104.611 221.777 104.768 221.844C104.926 221.912 105.051 222.04 105.114 222.2C105.178 222.36 105.175 222.538 105.107 222.696C105.039 222.854 104.912 222.978 104.752 223.041ZM106.743 228.042L71.3043 242.152C71.224 242.194 71.1359 242.218 71.0457 242.223C70.9555 242.229 70.8652 242.215 70.7806 242.183C70.696 242.152 70.6189 242.103 70.5543 242.039C70.4898 241.976 70.4392 241.9 70.4058 241.816C70.3723 241.732 70.3568 241.642 70.3603 241.552C70.3637 241.462 70.386 241.373 70.4257 241.292C70.4654 241.211 70.5216 241.139 70.5908 241.081C70.6599 241.022 70.7405 240.979 70.8273 240.954L106.266 226.844C106.346 226.803 106.434 226.779 106.525 226.773C106.615 226.768 106.705 226.782 106.79 226.813C106.874 226.845 106.951 226.894 107.016 226.957C107.081 227.02 107.131 227.096 107.165 227.18C107.198 227.264 107.214 227.354 107.21 227.445C107.207 227.535 107.184 227.623 107.145 227.705C107.105 227.786 107.049 227.858 106.98 227.916C106.91 227.974 106.83 228.017 106.743 228.042ZM108.736 233.049L73.2977 247.159C73.2173 247.2 73.1292 247.224 73.039 247.23C72.9488 247.235 72.8585 247.221 72.7739 247.19C72.6893 247.158 72.6122 247.109 72.5477 247.046C72.4831 246.983 72.4325 246.907 72.3991 246.823C72.3657 246.739 72.3502 246.649 72.3536 246.558C72.3571 246.468 72.3793 246.379 72.419 246.298C72.4587 246.217 72.5149 246.145 72.5841 246.087C72.6533 246.029 72.7338 245.986 72.8206 245.961L108.259 231.851C108.34 231.809 108.428 231.785 108.518 231.78C108.608 231.774 108.699 231.788 108.783 231.82C108.868 231.851 108.945 231.9 109.009 231.964C109.074 232.027 109.125 232.103 109.158 232.187C109.191 232.271 109.207 232.361 109.203 232.451C109.2 232.541 109.178 232.63 109.138 232.711C109.098 232.792 109.042 232.864 108.973 232.922C108.904 232.98 108.823 233.024 108.736 233.049ZM73.7523 128.864L21.7135 149.584C21.3152 149.743 20.8701 149.736 20.4763 149.567C20.0825 149.397 19.7722 149.078 19.6136 148.68C19.455 148.282 19.4611 147.837 19.6306 147.443C19.8001 147.049 20.1191 146.739 20.5175 146.58L72.5731 125.854C72.9715 125.695 73.4165 125.701 73.8103 125.871C74.2041 126.04 74.5145 126.359 74.6731 126.758C74.8317 127.156 74.8255 127.601 74.656 127.995C74.4865 128.389 74.1675 128.699 73.7691 128.858L73.7523 128.864ZM232.321 65.7293L123.406 109.095C123.008 109.253 122.563 109.247 122.169 109.077C121.775 108.908 121.465 108.589 121.306 108.191C121.147 107.792 121.154 107.347 121.323 106.953C121.493 106.56 121.812 106.249 122.21 106.091L231.125 62.7254C231.524 62.5668 231.969 62.5729 232.362 62.7425C232.756 62.912 233.067 63.231 233.225 63.6293C233.384 64.0277 233.378 64.4727 233.208 64.8665C233.039 65.2603 232.72 65.5707 232.321 65.7293ZM53.0696 238.862C52.8724 238.941 52.6615 238.981 52.449 238.978C52.2365 238.976 52.0266 238.931 51.8314 238.847C51.6362 238.763 51.4595 238.641 51.3116 238.489C51.1637 238.336 51.0475 238.156 50.9696 237.958L24.391 171.203C24.2624 170.812 24.2878 170.387 24.4621 170.014C24.6363 169.641 24.9462 169.349 25.3287 169.197C25.7111 169.044 26.1372 169.044 26.5201 169.195C26.903 169.346 27.2138 169.637 27.3892 170.01L53.9679 236.764C54.047 236.961 54.0866 237.171 54.0843 237.383C54.0819 237.595 54.0378 237.805 53.9543 237.999C53.8709 238.194 53.7497 238.371 53.5979 238.519C53.4461 238.667 53.2665 238.783 53.0696 238.862ZM55.4441 246.643C52.3728 247.865 54.7232 252.443 57.7833 251.224C60.8434 250.006 58.5042 245.424 55.4441 246.643ZM19.3618 155.004C16.2904 156.227 18.6408 160.804 21.701 159.586C24.7611 158.368 22.4219 153.786 19.3618 155.004ZM79.2312 123.164C76.1598 124.387 78.5046 128.966 81.5648 127.748C84.6249 126.53 82.2913 121.945 79.2312 123.164ZM239.965 58.476C236.888 59.7011 239.238 64.2786 242.298 63.0602C245.358 61.8418 243.025 57.2576 239.965 58.476ZM112.148 107.973C109.076 109.195 111.427 113.773 114.487 112.555C117.547 111.336 115.208 106.754 112.148 107.973ZM286.587 148.434C286.19 148.592 285.746 148.586 285.353 148.418C284.959 148.249 284.649 147.932 284.489 147.535L256.399 76.9839C256.24 76.5855 256.246 76.1405 256.416 75.7467C256.585 75.3529 256.904 75.0425 257.303 74.8839C257.701 74.7253 258.146 74.7315 258.54 74.901C258.934 75.0705 259.244 75.3895 259.403 75.7879L287.493 146.339C287.571 146.536 287.61 146.747 287.607 146.959C287.604 147.171 287.559 147.38 287.475 147.575C287.391 147.769 287.269 147.945 287.117 148.093C286.964 148.24 286.784 148.356 286.587 148.434ZM255.119 190.569L194.653 214.644C194.255 214.803 193.81 214.796 193.416 214.627C193.022 214.457 192.712 214.138 192.553 213.74C192.395 213.342 192.401 212.897 192.57 212.503C192.74 212.109 193.059 211.799 193.457 211.64L253.923 187.566C254.321 187.407 254.766 187.413 255.16 187.583C255.554 187.752 255.864 188.071 256.022 188.469C256.181 188.868 256.175 189.313 256.005 189.707C255.836 190.1 255.517 190.411 255.119 190.569ZM181.706 215.387C178.635 216.61 180.986 221.187 184.046 219.969C187.106 218.75 184.767 214.168 181.706 215.387ZM289.126 153.125C286.055 154.348 288.405 158.925 291.465 157.707C294.525 156.488 292.186 151.906 289.126 153.125Z" fill="#E2E8EE"/>
<path d="M181.511 170.511L192.608 127.854L198.432 125.764L187.335 168.421L181.511 170.511ZM178.84 153.68C177.176 154.278 175.573 154.429 174.031 154.136C172.477 153.809 171.074 153.079 169.819 151.946C168.586 150.768 167.624 149.216 166.933 147.291C166.242 145.366 166.004 143.573 166.218 141.913C166.465 140.24 167.084 138.784 168.075 137.544C169.067 136.304 170.395 135.386 172.059 134.788C173.723 134.191 175.332 134.056 176.885 134.382C178.439 134.708 179.826 135.444 181.048 136.59C182.269 137.735 183.225 139.27 183.916 141.195C184.607 143.12 184.852 144.929 184.649 146.623C184.435 148.283 183.832 149.734 182.841 150.974C181.837 152.181 180.504 153.083 178.84 153.68ZM177.399 149.667C178.476 149.281 179.183 148.53 179.519 147.414C179.844 146.267 179.678 144.779 179.022 142.952C178.366 141.125 177.554 139.888 176.585 139.241C175.605 138.562 174.576 138.415 173.499 138.802C172.455 139.177 171.754 139.944 171.397 141.103C171.061 142.218 171.221 143.69 171.876 145.517C172.521 147.311 173.333 148.548 174.313 149.228C175.327 149.895 176.355 150.042 177.399 149.667ZM207.885 161.487C206.253 162.072 204.651 162.224 203.076 161.942C201.522 161.616 200.135 160.88 198.913 159.735C197.68 158.557 196.718 157.005 196.027 155.08C195.336 153.155 195.098 151.362 195.312 149.701C195.526 148.041 196.129 146.59 197.121 145.351C198.145 144.099 199.472 143.18 201.104 142.595C202.8 141.986 204.426 141.845 205.979 142.171C207.533 142.497 208.92 143.233 210.142 144.378C211.363 145.524 212.319 147.059 213.01 148.984C213.701 150.909 213.946 152.718 213.743 154.412C213.529 156.072 212.926 157.523 211.935 158.762C210.931 159.97 209.582 160.878 207.885 161.487ZM206.444 157.473C207.521 157.087 208.228 156.336 208.564 155.221C208.889 154.073 208.723 152.586 208.067 150.758C207.423 148.964 206.611 147.727 205.63 147.047C204.65 146.368 203.621 146.222 202.544 146.608C201.5 146.983 200.8 147.75 200.442 148.91C200.106 150.025 200.266 151.496 200.922 153.323C201.577 155.15 202.396 156.404 203.376 157.083C204.377 157.718 205.4 157.848 206.444 157.473Z" fill="#C2C9D0"/>
</g>
<defs>
<clipPath id="clip0_8676_139">
<rect width="310" height="310" fill="white"/>
</clipPath>
</defs>
</svg>
