<svg width="320" height="320" viewBox="0 0 320 320" fill="none" xmlns="http://www.w3.org/2000/svg">
<g opacity="0.65">
<path d="M241.549 262.196C233.992 265.057 199.656 270.779 173.449 273.773L173.068 273.524C173.068 273.524 86.5243 281.389 73.4212 279.144C60.3031 276.899 52.8199 167.128 52.8199 133.789C52.8199 100.437 83.1643 97.4438 83.1643 97.4438L83.1349 97.0769L82.2249 84.2819L82.0343 81.7138L130.721 74.3038L146.48 73.6581L195.372 70.0481L196.282 77.5462L196.707 80.98L197.28 85.705C197.28 85.705 227.639 82.8581 234.007 115.58C240.375 148.316 253.992 257.486 241.549 262.196Z" fill="#D4DEE7"/>
</g>
<g opacity="0.34">
<path d="M160.241 163.986C159.999 163.971 159.747 163.943 159.494 163.928C152.579 163.327 144.443 162.89 135.665 162.734C135.501 162.72 135.335 162.718 135.171 162.728C134.568 162.708 133.965 162.699 133.362 162.691C126.621 162.599 120.191 162.668 114.363 162.878C114.134 162.887 113.916 162.896 113.675 162.905C99.2181 163.432 88.5374 164.806 85.8956 166.603C85.4718 166.863 85.2981 167.289 85.3549 167.821L85.2849 172.971C85.2637 174.535 86.4624 175.923 88.2418 176.375C93.7993 177.788 107.357 180.396 131.054 180.146C155.686 179.887 171.277 177.627 177.314 176.563C179.026 176.261 180.308 175.085 180.542 173.625L181.306 168.853C181.307 168.838 181.316 168.823 181.317 168.808L181.318 168.772C181.344 166.903 172.986 165.137 160.241 163.986Z" fill="#94862E"/>
</g>
<g opacity="0.34">
<path d="M218.403 189.218C219.242 190.436 219.127 192.173 218.097 193.573C214.464 198.51 204.746 210.909 187.106 228.103C170.136 244.645 158.527 252.119 153.531 254.934C151.932 255.835 150.106 255.659 149.042 254.513L145.537 250.739C145.144 250.42 144.96 249.966 145.087 249.485C145.757 246.361 152.536 237.993 162.63 227.63C162.799 227.457 162.949 227.301 163.109 227.136C167.181 222.959 171.784 218.471 176.724 213.883C177.166 213.472 177.608 213.062 178.058 212.66C178.174 212.536 178.289 212.43 178.421 212.324C184.879 206.376 191.065 201.074 196.482 196.735C196.676 196.571 196.878 196.417 197.063 196.261C207.077 188.294 214.344 183.801 215.616 185.171L218.403 189.218Z" fill="#94862E"/>
</g>
<g opacity="0.34">
<path d="M213.332 135.201C213.134 135.064 212.931 134.911 212.721 134.768C207.091 130.709 200.329 126.165 192.87 121.532C192.736 121.436 192.595 121.35 192.449 121.274C191.941 120.949 191.429 120.63 190.914 120.316C185.172 116.783 179.616 113.547 174.503 110.741C174.302 110.631 174.111 110.528 173.899 110.411C161.214 103.456 151.339 99.1625 148.149 99.3519C147.655 99.3812 147.317 99.6056 147.061 100.121L144.361 104.508C143.542 105.839 143.861 107.645 145.156 108.946C149.204 113.007 159.511 122.194 179.988 134.123C201.273 146.522 215.819 152.571 221.549 154.751C223.173 155.369 224.877 155.017 225.826 153.883L228.927 150.176C228.937 150.164 228.952 150.156 228.961 150.144L228.979 150.113C229.96 148.521 223.687 142.721 213.332 135.201Z" fill="#94862E"/>
</g>
<path d="M196.707 80.9794C186.656 83.7819 176.443 86.1737 166.157 88.1837C144.073 92.4975 121.594 95.0506 99.0556 96.3569C93.7437 96.665 88.4469 96.9 83.135 97.0756L82.225 84.2806C85.6294 83.0188 89.2831 82.2119 91.5869 81.6537C100.641 79.4969 110.046 78.8512 119.364 78.015C133.318 76.7675 147.243 75.0806 161.242 74.6987C172.995 74.3756 184.895 75.0069 196.282 77.5456L196.707 80.9794Z" fill="#371005"/>
<path d="M206.663 55.8656L206.575 72.4319C206.561 74.2219 205.489 75.7919 203.861 76.4525C203.77 76.5111 203.671 76.5556 203.567 76.5844C203.553 76.5844 203.538 76.5988 203.524 76.5988C201.44 77.2881 198.447 78.3013 194.426 79.4894C194.312 79.5169 194.199 79.5512 194.089 79.5919C190.152 80.7399 186.184 81.7772 182.189 82.7025C182.071 82.7463 181.939 82.7756 181.822 82.7906C177.589 83.7759 173.332 84.6566 169.056 85.4319C168.939 85.4613 168.821 85.4906 168.704 85.505C165.747 86.0471 162.783 86.5461 159.812 87.0019C159.694 87.0313 159.562 87.0456 159.445 87.0606C155.829 87.6222 152.204 88.126 148.572 88.5719C148.454 88.5863 148.337 88.6013 148.205 88.6156C144.625 89.0601 141.04 89.4564 137.449 89.8044C137.024 89.8488 136.598 89.8925 136.187 89.9219C136.056 89.9363 135.938 89.9513 135.821 89.9656C131.487 90.3688 127.148 90.7112 122.806 90.9925C122.688 91.0075 122.556 91.0075 122.439 91.0075C117.934 91.3006 113.722 91.4769 109.82 91.58C109.688 91.58 109.571 91.595 109.453 91.595C105.007 91.6975 100.957 91.7125 97.3037 91.6244H96.9224C92.9018 91.5363 89.3512 91.3456 86.2693 91.0963C86.1426 91.0796 86.0151 91.0698 85.8874 91.0669C81.5443 90.7 78.1255 90.2013 75.6018 89.6731C75.4699 89.6438 75.3374 89.6144 75.2205 89.585C74.5312 89.4531 73.9293 89.2919 73.3862 89.145C71.5962 88.6463 70.3343 87.0763 70.2018 85.2125L68.9987 68.3969L73.5474 67.9863L73.9143 67.9569L199.034 56.5556L199.401 56.5263L206.663 55.8656Z" fill="#94862E"/>
<path d="M75.6006 89.6731C75.4687 89.6437 75.3362 89.6144 75.2193 89.585C74.1062 82.439 73.547 75.2177 73.5468 67.9856V67.8975H73.9137V67.9562C73.9023 75.2284 74.4664 82.49 75.6006 89.6731ZM86.2681 91.0962C86.1414 91.0795 86.0139 91.0697 85.8862 91.0669C84.5482 83.6982 83.4423 76.2894 82.5699 68.8512L82.9368 68.8219C83.8079 76.2805 84.9189 83.7091 86.2681 91.0962ZM97.3024 91.6244H96.9212C96.8774 91.2869 96.8331 90.9494 96.7893 90.6262L93.9131 69.2031L94.2799 69.1444L97.1562 90.5825C97.1993 90.92 97.2437 91.2725 97.3024 91.6244ZM109.819 91.5806C109.687 91.5806 109.569 91.5956 109.452 91.5956C108.89 83.3734 108.151 75.1642 107.236 66.9737L107.603 66.93C108.517 75.1301 109.256 83.3489 109.819 91.5806ZM122.804 90.9937C122.687 91.0087 122.555 91.0087 122.437 91.0087C121.455 82.9743 120.374 74.9522 119.195 66.9444L119.547 66.9006C120.739 74.9169 121.825 82.9486 122.804 90.9937ZM136.187 89.9225C136.055 89.9369 135.937 89.9519 135.82 89.9662C135.101 82.2331 133.839 74.5006 132.034 66.9731L132.386 66.885C134.206 74.4275 135.467 82.175 136.187 89.9225ZM148.571 88.5725C148.454 88.5869 148.336 88.6019 148.204 88.6162C146.942 80.0912 145.167 71.5806 142.966 63.2462L143.333 63.1581C145.548 71.4925 147.294 80.0325 148.571 88.5725ZM159.811 87.0025C159.693 87.0319 159.561 87.0462 159.444 87.0612C158.782 78.5304 157.213 70.0945 154.763 61.8962L155.116 61.7937C157.564 70.0078 159.138 78.4576 159.811 87.0025ZM169.055 85.4325C168.937 85.4619 168.82 85.4912 168.702 85.5056C168.306 83.2312 168.013 80.9275 167.719 78.6825C166.971 72.8719 166.193 66.8706 164.007 61.3681L164.359 61.2212C166.559 66.7825 167.337 72.7987 168.086 78.6387C168.38 80.8837 168.674 83.1581 169.055 85.4325ZM182.187 82.7031C182.07 82.7469 181.938 82.7762 181.821 82.7912C180.133 75.1906 178.137 67.6187 175.907 60.2087L176.259 60.1062C178.513 67.5631 180.49 75.1005 182.187 82.7031ZM194.425 79.49C194.311 79.5175 194.198 79.5518 194.087 79.5925C193.044 72.3275 191.345 65.172 189.011 58.2137L189.362 58.0962C191.698 65.0584 193.393 72.2194 194.425 79.49ZM203.86 76.4525C203.77 76.5111 203.671 76.5556 203.567 76.5844C203.552 76.5844 203.537 76.5987 203.523 76.5987C202.52 69.8164 201.019 63.1171 199.033 56.555C198.962 56.2888 198.883 56.0246 198.798 55.7625L199.15 55.6594C199.238 55.9531 199.326 56.2319 199.399 56.525C201.383 63.0464 202.874 69.7077 203.86 76.4525Z" fill="#FFECDC"/>
<path d="M138.362 67.941C176.364 64.4056 206.923 58.8797 206.618 55.5984C206.312 52.3172 175.258 52.5232 137.256 56.0586C99.2544 59.5939 68.6953 65.1199 69.0005 68.4011C69.3058 71.6824 100.36 71.4764 138.362 67.941Z" fill="#D4DEE7"/>
<path d="M119.663 262.85C139.757 259.378 153.232 240.274 149.76 220.179C146.288 200.085 127.184 186.61 107.089 190.082C86.9951 193.554 73.52 212.658 76.992 232.752C80.4639 252.847 99.5682 266.322 119.663 262.85Z" fill="#94862E"/>
<path d="M147.147 245.598C142.19 253.705 134.18 259.778 124.627 262.168L124.236 262.262C122.045 262.783 119.812 263.105 117.564 263.224C110.179 263.618 102.846 261.778 96.5218 257.944L96.1756 257.732C88.0843 252.706 82.0424 244.625 79.7356 235.021C79.7031 234.886 79.6737 234.765 79.6506 234.635C79.168 232.55 78.8697 230.427 78.7593 228.289C78.3581 220.533 80.3624 213.218 84.1387 207.064L84.3506 206.718C89.3824 198.721 97.4031 192.757 106.931 190.468C107.057 190.429 107.194 190.397 107.324 190.374C109.419 189.889 111.552 189.589 113.699 189.476C121.368 189.072 128.602 191.039 134.704 194.733L135.05 194.944C143.062 199.909 149.066 207.864 151.444 217.331L151.538 217.723C152.068 219.916 152.391 222.155 152.503 224.409C152.904 231.999 150.98 239.183 147.349 245.246C147.287 245.366 147.22 245.484 147.147 245.598Z" fill="#FFC150"/>
<path d="M133.13 197.296L134.698 194.731L135.045 194.943L133.476 197.508L133.13 197.296Z" fill="white"/>
<path d="M96.1686 257.733L97.9717 254.785L98.3183 254.997L96.5152 257.945L96.1686 257.733Z" fill="white"/>
<path d="M151.539 217.723L148.537 218.447L148.442 218.055L151.444 217.331L151.539 217.723ZM83.0337 234.235L79.7356 235.022C79.7031 234.886 79.6737 234.766 79.6506 234.636L82.9393 233.843L83.0337 234.235ZM147.147 245.598L144.367 243.898L144.579 243.552L147.35 245.246C147.287 245.366 147.22 245.484 147.147 245.598Z" fill="white"/>
<path d="M84.1424 207.063L84.3544 206.716L87.097 208.394L86.885 208.74L84.1424 207.063Z" fill="white"/>
<path d="M124.628 262.168L124.236 262.262L123.436 258.943L123.829 258.849L124.628 262.168ZM108.04 193.346L107.648 193.44L106.932 190.468C107.058 190.429 107.194 190.397 107.324 190.374L108.04 193.346Z" fill="white"/>
<path d="M115.612 260.397C97.6493 260.397 82.5843 246.278 81.6312 228.134C80.6474 209.386 95.0987 193.332 113.846 192.347C114.448 192.316 115.05 192.3 115.652 192.3C133.616 192.3 148.681 206.419 149.634 224.563C150.617 243.311 136.166 259.364 117.419 260.349C116.813 260.381 116.211 260.397 115.612 260.397ZM115.652 192.702C115.059 192.702 114.465 192.717 113.868 192.749C95.3424 193.722 81.0599 209.586 82.0331 228.113C82.9756 246.041 97.8624 259.995 115.612 259.995C116.206 259.995 116.8 259.979 117.397 259.947C135.922 258.974 150.205 243.11 149.232 224.584C148.289 206.656 133.402 192.702 115.652 192.702Z" fill="white"/>
<path d="M126.626 232.28C126.704 233.767 126.412 235.059 125.754 236.157C125.093 237.254 124.188 238.151 123.037 238.846C121.887 239.542 120.614 240.009 119.218 240.248L119.301 241.817C119.315 242.092 119.219 242.353 119.01 242.599C118.801 242.844 118.547 242.975 118.245 242.991C117.941 243.007 117.673 242.903 117.441 242.681C117.208 242.459 117.085 242.209 117.071 241.934L116.991 240.406C115.72 240.363 114.464 240.121 113.268 239.691C112.068 239.263 110.964 238.604 110.019 237.749C109.608 237.38 109.245 236.961 108.938 236.501C108.623 236.036 108.452 235.54 108.425 235.017C108.406 234.659 108.484 234.296 108.659 233.928C109.032 233.163 109.646 232.758 110.499 232.714C111.132 232.681 111.667 232.874 112.102 233.292C112.539 233.711 112.773 234.209 112.803 234.787C112.822 235.177 112.742 235.566 112.572 235.918C113.068 236.416 113.688 236.798 114.434 237.062C115.179 237.327 115.981 237.478 116.839 237.516L116.316 227.563C115.164 227.22 114.035 226.802 112.938 226.312C111.863 225.83 110.966 225.166 110.246 224.32C109.524 223.475 109.128 222.364 109.056 220.987C108.974 219.446 109.23 218.149 109.824 217.095C110.397 216.063 111.23 215.199 112.239 214.588C113.26 213.967 114.391 213.549 115.57 213.356L115.44 210.878C115.431 210.732 115.452 210.585 115.501 210.447C115.551 210.31 115.629 210.183 115.729 210.077C115.825 209.966 115.942 209.875 116.074 209.811C116.206 209.747 116.35 209.711 116.497 209.705C116.643 209.696 116.789 209.717 116.927 209.767C117.065 209.817 117.191 209.894 117.297 209.994C117.53 210.203 117.654 210.459 117.669 210.761L117.795 213.156C118.679 213.166 119.541 213.266 120.378 213.456C121.216 213.646 121.989 213.916 122.699 214.266C123.349 214.591 123.952 215.014 124.504 215.537C125.057 216.061 125.351 216.68 125.389 217.396C125.421 218.002 125.236 218.536 124.832 218.998C124.428 219.462 123.924 219.709 123.317 219.741C122.684 219.774 122.143 219.574 121.692 219.143C121.241 218.711 121.001 218.206 120.97 217.628C120.958 217.375 120.987 217.122 121.055 216.878C120.819 216.615 120.424 216.401 119.862 216.237C119.302 216.073 118.662 215.983 117.943 215.964L118.431 225.257C119.382 225.511 120.329 225.792 121.271 226.101C122.184 226.398 123.055 226.811 123.862 227.331C124.638 227.833 125.295 228.498 125.786 229.28C126.282 230.069 126.562 231.069 126.626 232.28ZM112.066 220.746C112.122 221.819 112.537 222.64 113.312 223.206C114.088 223.773 115.036 224.234 116.159 224.589L115.719 216.206C114.73 216.441 113.821 216.931 113.081 217.628C112.331 218.33 111.993 219.369 112.066 220.746ZM123.611 232.438C123.547 231.227 123.024 230.329 122.041 229.746C121.058 229.163 119.907 228.657 118.586 228.23L119.066 237.356C120.322 237.097 121.412 236.564 122.336 235.756C123.261 234.949 123.686 233.843 123.611 232.438Z" fill="white"/>
<path d="M203.257 184.876C221.2 175.188 227.892 152.788 218.203 134.844C208.515 116.901 186.115 110.209 168.171 119.897C150.228 129.586 143.536 151.986 153.225 169.93C162.913 187.873 185.313 194.565 203.257 184.876Z" fill="#94862E"/>
<path d="M224.526 152.291C224.232 161.789 220.281 171.031 213.165 177.838L212.871 178.114C211.226 179.651 209.445 181.036 207.551 182.253C201.33 186.253 194.048 188.285 186.655 188.085L186.249 188.073C176.731 187.713 167.481 183.684 160.721 176.482C160.629 176.386 160.541 176.289 160.455 176.188C159.003 174.616 157.693 172.919 156.539 171.116C152.349 164.576 150.469 157.228 150.702 150.012L150.715 149.606C151.127 140.167 155.142 131.014 162.287 124.308C162.378 124.211 162.48 124.116 162.581 124.031C164.161 122.573 165.866 121.255 167.676 120.094C174.138 115.946 181.397 114.073 188.527 114.261L188.933 114.273C198.352 114.619 207.507 118.557 214.261 125.605L214.537 125.899C216.083 127.543 217.473 129.328 218.687 131.231C222.793 137.626 224.679 144.82 224.526 151.885C224.532 152.02 224.532 152.156 224.526 152.291Z" fill="#FFC150"/>
<path d="M188.432 117.27L188.524 114.265L188.93 114.277L188.838 117.282L188.432 117.27Z" fill="white"/>
<path d="M186.254 188.086L186.361 184.631L186.766 184.644L186.659 188.098L186.254 188.086Z" fill="white"/>
<path d="M214.538 125.899L212.288 128.014L212.012 127.72L214.262 125.605L214.538 125.899ZM163.197 174.165L160.721 176.482C160.63 176.386 160.541 176.289 160.456 176.188L162.921 173.871L163.197 174.165ZM224.526 152.291L221.268 152.19L221.281 151.784L224.527 151.884C224.534 152.028 224.53 152.159 224.526 152.291Z" fill="white"/>
<path d="M150.702 150.019L150.715 149.613L153.928 149.712L153.916 150.118L150.702 150.019Z" fill="white"/>
<path d="M213.165 177.838L212.871 178.114L210.533 175.626L210.827 175.35L213.165 177.838ZM164.676 126.259L164.382 126.535L162.288 124.308C162.379 124.211 162.481 124.116 162.582 124.031L164.676 126.259Z" fill="white"/>
<path d="M187.68 185.231C185.244 185.231 182.789 184.969 180.352 184.437C171.467 182.497 163.869 177.214 158.958 169.56C148.819 153.759 153.427 132.656 169.226 122.517C185.031 112.379 206.131 116.987 216.269 132.785C221.181 140.44 222.817 149.548 220.877 158.434C218.938 167.318 213.656 174.917 206.001 179.827C200.446 183.391 194.125 185.231 187.68 185.231ZM187.56 117.536C181.135 117.532 174.845 119.379 169.442 122.855C153.829 132.874 149.277 153.728 159.296 169.342C164.149 176.906 171.657 182.127 180.438 184.044C189.213 185.959 198.22 184.343 205.783 179.489C213.346 174.636 218.568 167.127 220.484 158.347C222.401 149.566 220.783 140.565 215.929 133.001C209.511 122.999 198.645 117.536 187.56 117.536Z" fill="white"/>
<path d="M200.102 150.881C200.906 152.134 201.292 153.402 201.263 154.682C201.233 155.962 200.89 157.189 200.234 158.364C199.58 159.538 198.705 160.574 197.611 161.472L198.459 162.794C198.607 163.026 198.653 163.301 198.594 163.617C198.534 163.934 198.378 164.174 198.123 164.337C197.867 164.501 197.583 164.544 197.272 164.466C196.959 164.387 196.728 164.232 196.579 164L195.753 162.712C194.628 163.304 193.417 163.717 192.165 163.934C190.911 164.158 189.625 164.131 188.381 163.857C187.841 163.739 187.318 163.554 186.824 163.307C186.319 163.059 185.926 162.713 185.642 162.272C185.449 161.971 185.337 161.616 185.306 161.211C185.251 160.361 185.584 159.706 186.304 159.244C186.837 158.901 187.398 158.804 187.983 158.953C188.571 159.101 189.02 159.418 189.332 159.904C189.541 160.23 189.66 160.596 189.691 161.002C190.369 161.189 191.097 161.214 191.876 161.074C192.654 160.935 193.425 160.669 194.19 160.277L188.807 151.889C187.637 152.162 186.449 152.358 185.253 152.474C184.081 152.588 182.972 152.456 181.927 152.078C180.882 151.701 179.988 150.932 179.243 149.771C178.41 148.473 177.989 147.219 177.984 146.01C177.971 144.83 178.267 143.667 178.841 142.636C179.42 141.591 180.196 140.668 181.125 139.917L179.785 137.828C179.704 137.706 179.65 137.568 179.625 137.423C179.6 137.279 179.605 137.131 179.639 136.988C179.705 136.684 179.866 136.449 180.122 136.285C180.245 136.205 180.383 136.15 180.527 136.126C180.671 136.101 180.819 136.106 180.962 136.14C181.267 136.206 181.501 136.367 181.664 136.622L182.96 138.641C183.719 138.217 184.521 137.875 185.352 137.622C186.138 137.379 186.949 137.23 187.77 137.176C188.509 137.137 189.249 137.208 189.967 137.388C190.706 137.569 191.269 137.961 191.657 138.564C191.984 139.075 192.088 139.631 191.966 140.232C191.844 140.835 191.529 141.299 191.017 141.628C190.484 141.97 189.915 142.065 189.309 141.912C188.703 141.761 188.244 141.441 187.932 140.954C187.796 140.741 187.696 140.506 187.634 140.261C187.299 140.148 186.849 140.159 186.28 140.294C185.712 140.429 185.112 140.668 184.478 141.008L189.503 148.84C190.458 148.589 191.421 148.364 192.389 148.167C193.329 147.973 194.29 147.901 195.249 147.953C196.185 148.008 197.064 148.256 197.886 148.694C198.709 149.131 199.447 149.861 200.102 150.881ZM181.74 148.071C182.321 148.975 183.088 149.483 184.041 149.591C184.996 149.699 186.048 149.63 187.2 149.382L182.667 142.317C181.925 143.011 181.377 143.887 181.079 144.859C180.775 145.84 180.996 146.91 181.74 148.071ZM197.561 152.512C196.906 151.491 196.007 150.971 194.864 150.951C193.722 150.931 192.471 151.061 191.112 151.344L196.047 159.036C197.011 158.189 197.694 157.185 198.097 156.026C198.5 154.867 198.321 153.695 197.561 152.512Z" fill="white"/>
<path d="M147.346 186.651L144.692 191.476C143.938 192.846 144.344 194.634 145.702 195.87C149.944 199.729 160.686 208.402 181.721 219.318C203.586 230.664 218.41 235.995 224.239 237.893C225.891 238.431 227.576 237.996 228.469 236.816L231.434 232.898L147.346 186.651Z" fill="#94862E"/>
<path d="M231.435 232.897L231.417 232.929C231.326 233.071 231.181 233.184 230.972 233.262C228.981 234.08 221.513 232.092 211.361 227.954L211.35 227.948C211.068 227.834 210.776 227.715 210.484 227.596L210.473 227.59C203.834 224.847 196.112 221.219 188.051 216.882L187.617 216.644C186.999 216.317 186.376 215.974 185.752 215.631C176.209 210.383 167.784 205.006 161.254 200.286L161.244 200.281C160.997 200.118 160.757 199.945 160.524 199.761C151.582 193.247 146.424 188.111 147.255 186.6C147.319 186.484 147.431 186.38 147.579 186.311C147.739 186.22 147.952 186.158 148.223 186.142C151.399 185.797 161.473 189.603 174.482 195.931L174.492 195.937L175.102 196.231C180.346 198.784 186.053 201.744 191.961 204.993C192.489 205.284 193.017 205.574 193.54 205.876C193.694 205.946 193.831 206.022 193.973 206.114C201.649 210.376 208.625 214.585 214.446 218.364L214.457 218.37C214.662 218.497 214.872 218.64 215.078 218.767C225.787 225.772 232.336 231.259 231.435 232.897Z" fill="#FFC150"/>
<path d="M224.779 230.983C223.442 230.983 220.435 230.278 213.455 227.293C206.153 224.171 196.739 219.486 186.952 214.102C169.092 204.28 150.852 192.494 152.225 189.997C153.588 187.497 173.319 196.593 191.179 206.414C209.038 216.236 227.277 228.023 225.905 230.519C225.814 230.684 225.651 230.983 224.779 230.983ZM153.387 189.988C152.992 189.988 152.745 190.069 152.654 190.234C151.767 191.848 165.731 201.871 187.189 213.671C196.962 219.048 206.36 223.725 213.648 226.842C224.443 231.458 225.403 230.419 225.476 230.283C226.363 228.668 212.4 218.646 190.942 206.846C171.678 196.25 156.859 189.988 153.387 189.988Z" fill="white"/>
<path d="M193.973 206.114L193.078 207.741L192.645 207.503L193.54 205.876C193.694 205.946 193.831 206.022 193.973 206.114Z" fill="white"/>
<path d="M187.61 216.642L188.778 214.517L189.211 214.755L188.043 216.88L187.61 216.642Z" fill="white"/>
<path d="M215.078 218.768L212.202 219.168L211.833 219.213L211.786 218.898L211.766 218.734L214.446 218.364L214.457 218.37C214.662 218.498 214.872 218.641 215.078 218.768ZM231.417 232.929C231.326 233.071 231.181 233.184 230.972 233.262L225.587 230.616L225.692 230.399L225.798 230.182L231.417 232.929ZM211.35 227.948C211.068 227.834 210.776 227.715 210.484 227.596L210.473 227.59L208.787 225.3L209.087 225.079L209.181 225.008L209.309 225.174L211.35 227.948ZM164.381 200.409L161.255 200.287L161.244 200.281C160.997 200.119 160.757 199.945 160.525 199.762L163.694 199.881L164.406 199.914L164.389 200.345L164.381 200.409ZM153.454 189.418L153.224 189.787L153.201 189.829L153.148 189.801L147.579 186.311C147.739 186.221 147.952 186.159 148.223 186.143L153.454 189.418ZM175.891 198.55L175.704 198.613L175.431 198.711L175.333 198.437L174.492 195.938L175.101 196.231L175.891 198.55ZM197.269 215.073C197.164 215.291 196.789 215.34 196.146 215.221C195.502 215.101 194.687 214.861 193.702 214.499C192.63 214.101 191.573 213.663 190.534 213.184L190.423 213.414C190.404 213.454 190.298 213.45 190.106 213.399C189.883 213.337 189.666 213.254 189.459 213.15C189.249 213.052 189.048 212.933 188.861 212.797C188.702 212.678 188.632 212.598 188.652 212.558L188.761 212.333C187.794 211.847 186.842 211.332 185.907 210.789C185.001 210.261 184.22 209.756 183.564 209.274C183.315 209.095 183.078 208.902 182.852 208.695C182.656 208.513 182.577 208.384 182.614 208.308C182.64 208.255 182.742 208.24 182.921 208.261C183.301 208.311 183.83 208.499 184.508 208.827C185.011 209.07 185.411 209.303 185.707 209.526C186.004 209.75 186.132 209.904 186.091 209.989C186.064 210.046 185.96 210.063 185.782 210.041C186.117 210.298 186.563 210.588 187.121 210.913C187.678 211.238 188.293 211.569 188.966 211.909L189.672 210.449C188.824 209.968 187.983 209.476 187.149 208.971C186.356 208.491 185.723 208.056 185.251 207.668C184.777 207.279 184.589 206.984 184.687 206.783C184.796 206.556 185.143 206.493 185.729 206.591C186.316 206.691 187.044 206.899 187.915 207.218C188.851 207.564 189.773 207.946 190.679 208.364L190.855 208C190.876 207.956 190.982 207.959 191.173 208.012C191.363 208.064 191.579 208.148 191.82 208.265C192.06 208.381 192.259 208.498 192.419 208.614C192.579 208.732 192.647 208.812 192.626 208.856L192.456 209.208C193.13 209.543 193.798 209.892 194.459 210.254C195.098 210.606 195.677 210.942 196.197 211.263C196.674 211.558 197.101 211.847 197.477 212.129C197.854 212.411 198.017 212.604 197.966 212.709C197.923 212.798 197.717 212.793 197.347 212.693C196.976 212.594 196.551 212.428 196.07 212.195C195.567 211.952 195.163 211.715 194.856 211.485C194.549 211.254 194.416 211.096 194.457 211.012C194.474 210.976 194.526 210.956 194.608 210.951C194.452 210.826 194.164 210.644 193.739 210.404C193.252 210.13 192.758 209.869 192.257 209.62L191.598 210.984C192.319 211.388 193.034 211.793 193.742 212.199C194.448 212.606 195.083 212.995 195.646 213.367C196.209 213.738 196.641 214.071 196.944 214.364C197.246 214.659 197.355 214.894 197.269 215.073ZM187.087 207.929C187.011 208.086 187.246 208.352 187.793 208.726C188.341 209.101 189.037 209.529 189.882 210.013L190.477 208.783C189.654 208.42 188.909 208.137 188.238 207.932C187.568 207.728 187.184 207.727 187.087 207.929ZM194.875 213.915C194.961 213.738 194.649 213.419 193.94 212.962C193.102 212.427 192.251 211.913 191.387 211.421L190.739 212.76C191.759 213.218 192.678 213.577 193.497 213.836C194.316 214.094 194.776 214.121 194.875 213.915Z" fill="white"/>
<path d="M70.4543 153.429L73.1993 158.204C73.9787 159.559 75.7181 160.141 77.4787 159.622C82.9793 158.001 95.97 153.327 116.223 141.021C137.275 128.229 149.53 118.331 154.18 114.336C155.498 113.203 156.001 111.537 155.457 110.162L153.649 105.592L70.4543 153.429Z" fill="#94862E"/>
<path d="M153.649 105.591L153.667 105.623C153.741 105.775 153.762 105.958 153.721 106.176C153.385 108.302 147.808 113.651 138.998 120.178L138.987 120.184C138.744 120.366 138.491 120.553 138.236 120.741L138.226 120.746C132.433 124.995 125.322 129.71 117.429 134.346L117.001 134.592C116.4 134.951 115.783 135.306 115.166 135.661C105.726 141.089 96.7543 145.496 89.3299 148.625L89.3193 148.631C89.0519 148.758 88.7791 148.873 88.5018 148.976C78.2905 153.234 71.2224 154.975 70.363 153.48C70.2925 153.349 70.2649 153.2 70.2843 153.053C70.2899 152.869 70.3474 152.654 70.4743 152.414C71.8293 149.521 80.3137 142.889 92.478 135.06L92.4886 135.054L93.0562 134.686C97.9618 131.532 103.456 128.192 109.301 124.831C109.823 124.531 110.346 124.23 110.875 123.94C111.015 123.846 111.151 123.767 111.304 123.694C118.933 119.349 126.152 115.573 132.406 112.561L132.417 112.555C132.632 112.445 132.864 112.34 133.079 112.23C144.627 106.717 152.717 103.971 153.649 105.591Z" fill="#FFC150"/>
<path d="M76.9349 151.394C76.3737 151.394 76.0037 151.267 75.848 150.998C75.6099 150.582 74.8824 149.318 85.0718 142.034C91.5318 137.417 100.424 131.806 110.11 126.237C119.796 120.668 129.119 115.804 136.359 112.544C147.784 107.403 148.506 108.668 148.745 109.081C148.983 109.497 149.709 110.762 139.521 118.044C133.061 122.663 124.169 128.273 114.483 133.842C98.7431 142.893 81.5112 151.393 76.9349 151.394ZM147.657 109.146C146.581 109.146 143.789 109.738 136.561 112.993C129.334 116.247 120.027 121.101 110.354 126.663C100.682 132.224 91.8049 137.826 85.3574 142.434C75.8049 149.262 76.1968 150.621 76.2743 150.753C77.1918 152.349 93.0093 145.626 114.238 133.418C123.91 127.856 132.787 122.256 139.236 117.646C148.787 110.819 148.395 109.459 148.318 109.327C148.294 109.283 148.174 109.146 147.657 109.146Z" fill="white"/>
<path d="M111.304 123.693L112.23 125.303L111.801 125.549L110.876 123.939C111.016 123.845 111.152 123.767 111.304 123.693Z" fill="white"/>
<path d="M115.796 132.489L116.225 132.243L117.433 134.344L117.005 134.591L115.796 132.489Z" fill="white"/>
<path d="M133.079 112.23L131.927 114.896L131.774 115.234L131.48 115.111L131.33 115.044L132.406 112.561L132.417 112.555C132.632 112.446 132.864 112.34 133.079 112.23ZM153.667 105.623C153.741 105.776 153.762 105.958 153.721 106.176L148.662 109.404L148.532 109.201L148.401 108.998L153.667 105.623ZM138.988 120.184C138.745 120.366 138.491 120.554 138.237 120.741L138.226 120.747L135.394 120.999L135.361 120.628L135.349 120.509L135.558 120.486L138.988 120.184ZM91.0593 146.019L89.3312 148.626L89.3206 148.632C89.0532 148.759 88.7804 148.874 88.5031 148.978L90.2506 146.331L90.6481 145.741L91.0074 145.979L91.0593 146.019ZM75.9918 149.646L76.1874 150.034L76.2112 150.076L76.1587 150.106L70.2849 153.053C70.2906 152.869 70.3481 152.654 70.4749 152.414L75.9918 149.646ZM95.4487 135.217L95.4056 135.409L95.3468 135.693L95.0625 135.634L92.4893 135.054L93.0568 134.686L95.4487 135.217ZM120.671 125.529C120.803 125.733 120.65 126.079 120.214 126.566C119.778 127.054 119.149 127.625 118.328 128.28C117.432 128.99 116.508 129.665 115.559 130.304L115.698 130.518C115.722 130.556 115.664 130.643 115.521 130.781C115.377 130.919 115.196 131.06 114.971 131.205C114.746 131.351 114.542 131.46 114.359 131.533C114.174 131.607 114.071 131.624 114.046 131.587L113.911 131.378C112.993 131.952 112.059 132.498 111.109 133.015C110.187 133.515 109.35 133.921 108.597 134.231C108.277 134.364 107.989 134.466 107.732 134.538C107.475 134.611 107.324 134.611 107.277 134.54C107.246 134.491 107.286 134.396 107.397 134.254C107.636 133.955 108.072 133.601 108.704 133.192C109.173 132.889 109.581 132.668 109.925 132.531C110.271 132.393 110.469 132.363 110.52 132.443C110.554 132.496 110.515 132.593 110.404 132.734C110.798 132.581 111.277 132.351 111.845 132.043C112.458 131.707 113.062 131.354 113.654 130.984L112.773 129.622C111.922 130.097 111.065 130.56 110.201 131.01C109.378 131.438 108.678 131.754 108.101 131.956C107.522 132.159 107.173 132.166 107.051 131.978C106.915 131.767 107.041 131.437 107.429 130.988C107.819 130.538 108.375 130.024 109.101 129.445C109.882 128.825 110.688 128.235 111.516 127.678L111.296 127.339C111.269 127.298 111.327 127.209 111.472 127.073C111.643 126.917 111.828 126.776 112.024 126.652C112.247 126.507 112.45 126.398 112.633 126.322C112.816 126.246 112.921 126.229 112.947 126.271L113.159 126.598C113.796 126.196 114.442 125.807 115.094 125.431C115.675 125.095 116.263 124.775 116.859 124.469C117.318 124.234 117.786 124.019 118.264 123.825C118.7 123.649 118.95 123.611 119.013 123.709C119.067 123.792 118.955 123.965 118.679 124.229C118.401 124.495 118.039 124.772 117.589 125.063C117.121 125.366 116.708 125.589 116.352 125.731C115.995 125.874 115.791 125.905 115.74 125.826C115.718 125.793 115.727 125.738 115.766 125.665C115.577 125.733 115.272 125.885 114.847 126.123C114.36 126.398 113.88 126.684 113.407 126.982L114.23 128.254C114.945 127.849 115.663 127.449 116.382 127.053C117.034 126.693 117.697 126.352 118.369 126.032C118.979 125.744 119.487 125.548 119.896 125.441C120.306 125.334 120.564 125.364 120.671 125.529ZM109.279 130.521C109.374 130.667 109.723 130.604 110.327 130.331C110.932 130.058 111.659 129.686 112.512 129.214L111.769 128.067C111.032 128.581 110.402 129.071 109.879 129.538C109.357 130.005 109.157 130.332 109.279 130.521ZM118.439 126.974C118.332 126.809 117.898 126.91 117.139 127.279C116.246 127.717 115.365 128.177 114.496 128.66L115.304 129.909C116.225 129.276 117.009 128.676 117.656 128.111C118.302 127.545 118.563 127.166 118.439 126.974ZM206.075 109.923C206.216 116.324 208.833 122.639 213.261 127.262C214.406 128.458 215.747 129.585 217.371 129.908C219.926 130.416 222.536 128.709 223.786 126.425C225.036 124.14 225.18 121.416 225.027 118.816C224.806 115.074 223.999 111.293 222.062 108.083C220.253 105.087 216.129 101.094 212.292 101.309C207.922 101.554 205.992 106.162 206.075 109.923ZM220.502 141.363C219.618 142.892 219.421 144.714 219.308 146.477C218.596 157.607 220.478 168.722 222.353 179.716C223.044 183.769 223.767 187.912 225.778 191.497C226.434 192.667 227.4 193.87 228.737 193.969C229.958 194.06 231.076 193.141 231.599 192.034C232.123 190.927 232.177 189.664 232.206 188.439C232.438 178.654 231.697 168.871 229.994 159.234C229.134 154.369 228.032 149.551 226.69 144.797C225.819 141.709 223.721 135.796 220.502 141.363ZM74.4193 269.214C78.1368 273.224 83.8243 275.692 89.1668 274.526C90.1312 274.315 91.1837 273.891 91.5424 272.972C92.1718 271.361 90.3099 269.986 88.8668 269.034C83.1031 265.23 80.4231 258.323 77.3693 252.128C76.0218 249.394 74.3318 246.533 71.5074 245.388C70.3825 244.933 68.9706 244.836 68.0637 245.643C67.4218 246.214 67.1774 247.104 67.0424 247.952C65.9499 254.829 69.8049 264.236 74.4193 269.214ZM51.6812 147.706L57.9074 146.506L54.0293 149.485C51.8701 151.144 50.2214 153.377 49.2718 155.929C48.3222 158.481 48.1102 161.248 48.6599 163.915L49.9606 170.225L46.7812 165.979C44.9807 163.575 42.4783 161.79 39.6194 160.869C36.7606 159.948 33.6864 159.937 30.8212 160.838L26.2418 162.278L30.7243 158.603C32.8771 156.837 34.4764 154.49 35.3311 151.84C36.1858 149.19 36.2598 146.351 35.5443 143.66L34.1881 138.559L37.9381 142.921C39.6045 144.858 41.753 146.321 44.1663 147.161C46.5796 148.001 49.172 148.189 51.6812 147.706ZM142.384 52.9681L146.467 55.5981L142.744 55.1963C140.67 54.9725 138.576 55.3369 136.7 56.2476C134.824 57.1583 133.242 58.5787 132.136 60.3463L129.517 64.5288L130.003 60.4956C130.278 58.2117 129.837 55.8989 128.741 53.8763C127.645 51.8538 125.948 50.2213 123.885 49.2044L120.587 47.5788L125.014 47.915C127.141 48.0763 129.268 47.6223 131.144 46.6071C133.019 45.5919 134.562 44.0586 135.59 42.19L137.537 38.6481L137.307 43.0475C137.204 45.0019 137.619 46.9488 138.511 48.6909C139.403 50.4331 140.739 51.9086 142.384 52.9681ZM261.927 146.039L267.793 143.958L264.468 147.421C262.616 149.348 261.345 151.758 260.799 154.375C260.253 156.991 260.454 159.709 261.381 162.216L263.572 168.149L259.861 164.497C257.759 162.429 255.067 161.064 252.157 160.591C249.247 160.118 246.261 160.56 243.613 161.856L239.381 163.927L243.191 159.699C245.02 157.669 246.227 155.155 246.667 152.458C247.106 149.76 246.76 146.993 245.67 144.487L243.603 139.736L247.885 143.417C249.787 145.052 252.087 146.156 254.553 146.617C257.019 147.077 259.563 146.878 261.927 146.039ZM50.8693 243.481L55.4462 241.857L52.8518 244.559C51.4073 246.063 50.4152 247.943 49.9893 249.985C49.5633 252.026 49.7205 254.146 50.4431 256.103L52.1524 260.731L49.2574 257.881C47.6179 256.268 45.5179 255.203 43.2472 254.834C40.9766 254.465 38.6474 254.809 36.5812 255.821L33.2787 257.437L36.2512 254.139C37.6788 252.555 38.6203 250.593 38.9633 248.489C39.3064 246.384 39.0364 244.225 38.1856 242.27L36.5731 238.563L39.9137 241.435C41.3977 242.711 43.1924 243.572 45.1163 243.932C47.0402 244.291 49.0248 244.136 50.8693 243.481ZM277.774 248.821L281.462 251.98L277.827 251.076C275.804 250.573 273.679 250.65 271.697 251.297C269.715 251.945 267.955 253.138 266.619 254.739L263.457 258.528L264.485 254.598C265.067 252.373 264.944 250.021 264.133 247.869C263.321 245.716 261.862 243.868 259.956 242.581L256.909 240.523L261.25 241.456C263.335 241.905 265.504 241.744 267.5 240.993C269.495 240.241 271.233 238.932 272.504 237.22L274.915 233.975L274.089 238.302C273.723 240.224 273.87 242.21 274.517 244.057C275.164 245.904 276.288 247.547 277.774 248.821Z" fill="#CA6140"/>
</svg>
