<svg width="290" height="290" viewBox="0 0 290 290" fill="none" xmlns="http://www.w3.org/2000/svg">
<path d="M217.828 274.33C214.333 280.248 63.0535 276.435 63.0535 276.435L62.9912 276.308C62.9912 276.308 65.5751 186.341 74.6189 157.892C74.8845 157.061 75.263 156.271 75.7437 155.543C77.3399 153.101 80.015 151.525 82.9937 151.417C104.555 150.65 181.65 148.059 206.165 149.151C207.591 149.214 208.888 149.952 209.702 151.144C210.652 152.535 211.709 154.625 211.855 157.181C211.885 157.382 211.885 157.597 211.885 157.814C211.885 157.814 223.649 155.836 224.82 168.6C226.113 182.818 221.325 268.412 217.828 274.33Z" fill="#D4DEE7"/>
<path d="M65.6221 273.777H65.6164C65.5657 273.775 65.5176 273.753 65.4828 273.716C65.448 273.679 65.4292 273.63 65.4306 273.579C65.4697 272.257 65.5173 270.763 65.5728 269.118C65.5737 269.093 65.5795 269.068 65.59 269.045C65.6004 269.022 65.6153 269.002 65.6337 268.985C65.6521 268.967 65.6737 268.954 65.6972 268.945C65.7208 268.936 65.7459 268.932 65.771 268.933C65.7962 268.934 65.8209 268.94 65.8438 268.95C65.8667 268.961 65.8873 268.976 65.9044 268.994C65.9216 269.013 65.9349 269.034 65.9437 269.058C65.9525 269.081 65.9566 269.106 65.9557 269.132C65.9002 270.776 65.8531 272.269 65.8135 273.592C65.8119 273.642 65.791 273.689 65.7552 273.723C65.7195 273.758 65.6717 273.777 65.6221 273.777ZM65.9251 264.857H65.9177C65.8926 264.856 65.8679 264.85 65.845 264.84C65.8221 264.829 65.8016 264.814 65.7845 264.796C65.7674 264.777 65.7541 264.756 65.7454 264.732C65.7366 264.708 65.7327 264.683 65.7336 264.658C65.7869 263.245 65.8458 261.756 65.9104 260.2C65.9149 260.096 65.9998 260.035 66.1097 260.017C66.1604 260.019 66.2081 260.042 66.2425 260.079C66.2768 260.116 66.2951 260.166 66.2932 260.216C66.2287 261.772 66.1698 263.26 66.1165 264.672C66.1148 264.722 66.0938 264.769 66.0581 264.803C66.0224 264.838 65.9747 264.857 65.9251 264.857ZM66.2938 255.943H66.2853C66.2346 255.941 66.187 255.919 66.1527 255.881C66.1185 255.844 66.1004 255.794 66.1024 255.743C66.1669 254.301 66.2372 252.814 66.3114 251.288C66.3165 251.182 66.398 251.114 66.5124 251.106C66.6178 251.111 66.6994 251.201 66.6943 251.307C66.6201 252.832 66.5504 254.319 66.4853 255.762C66.4828 255.811 66.4615 255.857 66.4259 255.891C66.3902 255.925 66.343 255.943 66.2938 255.943ZM66.7294 247.034H66.7192C66.6685 247.032 66.621 247.009 66.5871 246.971C66.5531 246.933 66.5355 246.884 66.5379 246.833C66.615 245.375 66.696 243.889 66.7815 242.38C66.7883 242.274 66.8761 242.205 66.9837 242.199C67.0344 242.202 67.0818 242.225 67.1157 242.263C67.1495 242.301 67.167 242.351 67.1644 242.401C67.0783 243.911 66.9978 245.396 66.9208 246.853C66.9181 246.902 66.8967 246.948 66.8612 246.982C66.8256 247.015 66.7784 247.034 66.7294 247.034ZM67.2352 238.131H67.2233C67.1725 238.128 67.1251 238.105 67.0914 238.067C67.0578 238.029 67.0406 237.979 67.0437 237.928C67.1332 236.461 67.2267 234.976 67.3241 233.478C67.3251 233.452 67.3312 233.427 67.3421 233.404C67.353 233.382 67.3685 233.361 67.3876 233.344C67.4066 233.328 67.4289 233.315 67.4531 233.307C67.4772 233.299 67.5027 233.296 67.528 233.299C67.5787 233.302 67.626 233.326 67.6595 233.364C67.693 233.402 67.7101 233.452 67.707 233.503C67.6096 235.001 67.5161 236.485 67.4266 237.951C67.4235 238 67.4019 238.045 67.3664 238.079C67.3309 238.112 67.284 238.131 67.2352 238.131ZM67.8157 229.233H67.8027C67.752 229.229 67.7048 229.206 67.6714 229.168C67.6379 229.129 67.621 229.079 67.6243 229.029C67.7268 227.555 67.8339 226.071 67.946 224.58C67.9534 224.475 68.0389 224.386 68.151 224.404C68.1761 224.406 68.2005 224.413 68.2229 224.424C68.2453 224.435 68.2653 224.451 68.2817 224.47C68.298 224.489 68.3105 224.511 68.3183 224.535C68.3261 224.559 68.3291 224.584 68.3272 224.609C68.2156 226.099 68.1097 227.582 68.0072 229.055C68.0037 229.103 67.9821 229.148 67.9466 229.181C67.911 229.215 67.8643 229.233 67.8157 229.233ZM68.4813 220.342L68.466 220.341C68.4409 220.339 68.4164 220.332 68.394 220.321C68.3715 220.309 68.3516 220.294 68.3353 220.275C68.319 220.255 68.3066 220.233 68.2989 220.209C68.2912 220.185 68.2883 220.16 68.2904 220.135C68.4088 218.657 68.5322 217.177 68.6585 215.695C68.6665 215.588 68.7503 215.503 68.8653 215.52C68.9706 215.529 69.0494 215.622 69.0397 215.727C68.9129 217.209 68.7899 218.689 68.6716 220.166C68.668 220.214 68.6464 220.258 68.6111 220.291C68.5757 220.324 68.5294 220.342 68.4813 220.342ZM69.2465 211.459L69.2289 211.458C69.2038 211.456 69.1794 211.449 69.1572 211.437C69.1349 211.425 69.1151 211.409 69.099 211.39C69.0829 211.371 69.0708 211.348 69.0633 211.324C69.0559 211.3 69.0532 211.275 69.0556 211.25C69.1927 209.767 69.3337 208.287 69.4793 206.81C69.4894 206.706 69.5682 206.624 69.6888 206.639C69.7139 206.641 69.7382 206.649 69.7603 206.66C69.7825 206.672 69.8021 206.688 69.8181 206.708C69.834 206.727 69.846 206.75 69.8532 206.774C69.8605 206.798 69.8629 206.823 69.8604 206.848C69.7149 208.323 69.5738 209.803 69.4368 211.284C69.4327 211.332 69.4108 211.376 69.3756 211.409C69.3403 211.441 69.2943 211.459 69.2465 211.459ZM70.1261 202.587L70.1057 202.587C70.0551 202.581 70.0088 202.556 69.9769 202.516C69.9449 202.477 69.93 202.426 69.9352 202.375C70.0938 200.889 70.2575 199.41 70.4274 197.943C70.4393 197.838 70.5322 197.755 70.6392 197.775C70.6642 197.777 70.6884 197.785 70.7104 197.797C70.7324 197.809 70.7517 197.826 70.7674 197.845C70.783 197.865 70.7946 197.888 70.8015 197.912C70.8083 197.936 70.8104 197.961 70.8075 197.986C70.6381 199.462 70.4746 200.939 70.317 202.416C70.3117 202.463 70.2893 202.507 70.2541 202.538C70.2189 202.57 70.1733 202.587 70.1261 202.587ZM71.149 193.729C71.1411 193.729 71.1331 193.729 71.1252 193.728C71.1003 193.724 71.0762 193.716 71.0543 193.704C71.0325 193.691 71.0133 193.675 70.9979 193.655C70.9825 193.635 70.9711 193.612 70.9645 193.588C70.9579 193.564 70.9561 193.538 70.9593 193.513C71.1456 192.023 71.3376 190.547 71.5359 189.092C71.5506 188.987 71.6486 188.921 71.7511 188.927C71.776 188.931 71.8 188.939 71.8218 188.952C71.8435 188.964 71.8625 188.981 71.8778 189.001C71.893 189.021 71.9042 189.044 71.9107 189.068C71.9171 189.092 71.9187 189.118 71.9153 189.143C71.7151 190.615 71.5229 192.088 71.3387 193.562C71.3331 193.608 71.3106 193.651 71.2757 193.681C71.2407 193.712 71.1957 193.729 71.149 193.729ZM72.3543 184.895C72.3267 184.895 72.2994 184.889 72.2743 184.877C72.2492 184.866 72.2269 184.849 72.2089 184.828C72.1909 184.807 72.1777 184.783 72.1701 184.756C72.1626 184.73 72.1609 184.702 72.1651 184.675C72.3894 183.171 72.6217 181.688 72.855 180.268C72.8588 180.243 72.8675 180.219 72.8807 180.197C72.8939 180.176 72.9113 180.157 72.9318 180.142C72.9524 180.127 72.9756 180.117 73.0003 180.111C73.0249 180.106 73.0505 180.105 73.0753 180.11C73.1254 180.118 73.1701 180.146 73.1997 180.187C73.2293 180.228 73.2414 180.28 73.2334 180.33C72.9925 181.795 72.7625 183.263 72.5435 184.731C72.5367 184.777 72.5139 184.818 72.4792 184.848C72.4445 184.878 72.4002 184.895 72.3543 184.895ZM73.806 176.096C73.778 176.096 73.7503 176.09 73.7249 176.078C73.6995 176.066 73.6771 176.049 73.6591 176.027C73.6412 176.006 73.6282 175.981 73.621 175.954C73.6139 175.927 73.6129 175.898 73.618 175.871C73.8944 174.36 74.1815 172.886 74.4704 171.489C74.4925 171.385 74.5933 171.325 74.6969 171.34C74.7216 171.345 74.7451 171.355 74.7659 171.369C74.7868 171.383 74.8046 171.401 74.8184 171.422C74.8323 171.443 74.8418 171.467 74.8466 171.492C74.8513 171.516 74.851 171.542 74.8459 171.567C74.546 173.021 74.2624 174.479 73.9952 175.94C73.9867 175.984 73.9632 176.023 73.9287 176.052C73.8942 176.08 73.8508 176.096 73.806 176.096ZM75.623 167.366C75.5941 167.365 75.5657 167.359 75.5397 167.346C75.5137 167.334 75.491 167.315 75.4731 167.293C75.4551 167.27 75.4426 167.244 75.4363 167.215C75.43 167.187 75.4301 167.158 75.4367 167.13C75.7796 165.681 76.1518 164.239 76.553 162.805C76.5593 162.78 76.5704 162.757 76.5858 162.737C76.6012 162.717 76.6205 162.701 76.6425 162.688C76.6645 162.676 76.6888 162.668 76.714 162.665C76.7391 162.663 76.7645 162.665 76.7887 162.672C76.8906 162.701 76.9501 162.806 76.9212 162.908C76.5218 164.337 76.1509 165.774 75.8088 167.218C75.7991 167.26 75.7754 167.298 75.7416 167.324C75.7079 167.351 75.6661 167.366 75.623 167.366ZM78.3225 158.047C78.2916 158.047 78.2612 158.04 78.2337 158.026C78.2063 158.012 78.1827 157.991 78.165 157.966C78.1473 157.94 78.136 157.911 78.1321 157.881C78.1281 157.85 78.1316 157.819 78.1424 157.79C78.4042 157.063 78.6841 156.343 78.9818 155.63C79.0018 155.584 79.0393 155.547 79.0862 155.528C79.1332 155.508 79.1858 155.508 79.2327 155.528C79.2794 155.548 79.3164 155.585 79.3356 155.632C79.3548 155.679 79.3546 155.732 79.3352 155.779C79.0397 156.486 78.7619 157.2 78.502 157.921C78.489 157.958 78.4647 157.99 78.4325 158.013C78.4003 158.035 78.3619 158.047 78.3225 158.047Z" fill="white"/>
<path d="M211.96 157.644C208.601 157.746 196.383 158.218 180.624 158.201C157.305 158.175 125.748 158.65 103.47 159.012C88.6338 159.253 78.0149 158.708 76.9597 157.737C76.1996 157.041 75.8348 156.3 75.7437 155.542C77.3398 153.101 80.0149 151.524 82.9936 151.416C104.555 150.65 181.65 148.058 206.164 149.15C207.591 149.213 208.888 149.951 209.702 151.143C210.653 152.536 211.814 155.09 211.96 157.644Z" fill="#371005"/>
<path d="M160.761 207.394L224.087 207.084L224.301 202.327C224.301 202.327 228.307 206.469 226.755 219.292C225.542 229.316 222.68 232.115 222.68 232.115H160.825C153.92 232.115 148.401 226.275 148.677 219.261C148.936 212.656 154.261 207.429 160.761 207.394Z" fill="#FFECDC"/>
<path d="M161.657 225.605C165.14 225.605 167.963 222.734 167.963 219.194C167.963 215.653 165.14 212.782 161.657 212.782C158.174 212.782 155.35 215.653 155.35 219.194C155.35 222.734 158.174 225.605 161.657 225.605Z" fill="white"/>
<path d="M43.9131 266.709V273.214C43.9131 275.061 45.1048 276.68 46.8521 277.186C52.3083 278.765 65.6091 281.627 88.7936 280.952C112.892 280.249 128.117 277.328 134.01 275.975C135.681 275.592 136.92 274.182 137.129 272.453L137.825 266.709H43.9131Z" fill="#FFC150"/>
<g opacity="0.44">
<path d="M43.9131 266.709V273.214C43.9131 275.061 45.1048 276.68 46.8521 277.186C52.3083 278.765 65.6091 281.627 88.7936 280.952C112.892 280.249 128.117 277.328 134.01 275.975C135.681 275.592 136.92 274.182 137.129 272.453L137.825 266.709H43.9131Z" fill="#CA6140"/>
</g>
<path d="M137.825 266.709C137.825 269.638 116.499 273.434 90.5665 273.434C64.6338 273.434 43.9137 269.638 43.9137 266.709C43.9137 263.78 64.9363 261.405 90.8695 261.405C116.802 261.405 137.825 263.78 137.825 266.709Z" fill="#FFC150"/>
<path d="M90.8696 271.581C70.9379 271.581 49.7539 269.874 49.7539 266.709C49.7539 263.545 70.9379 261.837 90.8696 261.837C110.801 261.837 131.985 263.545 131.985 266.709C131.985 269.874 110.801 271.581 90.8696 271.581ZM90.8696 262.35C66.9414 262.35 50.2659 264.647 50.2659 266.709C50.2659 268.771 66.9414 271.069 90.8696 271.069C114.797 271.069 131.472 268.771 131.472 266.709C131.472 264.647 114.797 262.35 90.8696 262.35Z" fill="white"/>
<path d="M49.8802 257.742V264.247C49.8802 266.094 51.072 267.713 52.8193 268.219C58.2755 269.798 71.5763 272.66 94.7608 271.984C118.859 271.281 134.084 268.361 139.977 267.008C141.648 266.624 142.887 265.214 143.096 263.485L143.792 257.741H49.8802V257.742Z" fill="#FFC150"/>
<g opacity="0.44">
<path d="M49.8802 257.742V264.247C49.8802 266.094 51.072 267.713 52.8193 268.219C58.2755 269.798 71.5763 272.66 94.7608 271.984C118.859 271.281 134.084 268.361 139.977 267.008C141.648 266.624 142.887 265.214 143.096 263.485L143.792 257.741H49.8802V257.742Z" fill="#CA6140"/>
</g>
<path d="M143.792 257.742C143.792 260.671 122.466 264.467 96.5336 264.467C70.6008 264.467 49.8807 260.671 49.8807 257.742C49.8807 254.812 70.9033 252.437 96.8366 252.437C122.769 252.437 143.792 254.812 143.792 257.742Z" fill="#FFC150"/>
<path d="M96.8361 262.613C76.9044 262.613 55.7209 260.906 55.7209 257.742C55.7209 254.577 76.9044 252.87 96.8361 252.87C116.768 252.87 137.952 254.577 137.952 257.742C137.952 260.906 116.767 262.613 96.8361 262.613ZM96.8361 253.382C72.9084 253.382 56.2335 255.68 56.2335 257.742C56.2335 259.804 72.909 262.101 96.8361 262.101C120.764 262.101 137.44 259.803 137.44 257.742C137.439 255.68 120.764 253.382 96.8361 253.382Z" fill="white"/>
<path d="M36.1307 246.4V252.905C36.1307 254.752 37.3224 256.372 39.0698 256.877C44.5259 258.457 57.8268 261.319 81.0113 260.642C105.11 259.939 120.335 257.02 126.228 255.666C127.899 255.282 129.138 253.872 129.347 252.143L130.042 246.4H36.1307V246.4Z" fill="#FFC150"/>
<g opacity="0.44">
<path d="M36.1307 246.4V252.905C36.1307 254.752 37.3224 256.372 39.0698 256.877C44.5259 258.457 57.8268 261.319 81.0113 260.642C105.11 259.939 120.335 257.02 126.228 255.666C127.899 255.282 129.138 253.872 129.347 252.143L130.042 246.4H36.1307V246.4Z" fill="#CA6140"/>
</g>
<path d="M130.042 246.4C130.042 249.33 108.716 253.126 82.7836 253.126C56.8508 253.126 36.1307 249.33 36.1307 246.4C36.1307 243.471 57.1533 241.096 83.0866 241.096C109.019 241.096 130.042 243.471 130.042 246.4Z" fill="#FFC150"/>
<path d="M83.0866 251.272C63.1549 251.272 41.9709 249.564 41.9709 246.4C41.9709 243.236 63.1549 241.528 83.0866 241.528C103.018 241.528 124.202 243.236 124.202 246.4C124.202 249.565 103.018 251.272 83.0866 251.272ZM83.0866 242.041C59.1584 242.041 42.483 244.338 42.483 246.4C42.483 248.462 59.1584 250.759 83.0866 250.759C107.014 250.759 123.689 248.462 123.689 246.4C123.689 244.338 107.014 242.041 83.0866 242.041Z" fill="white"/>
<path d="M45.7296 236.642V243.147C45.7296 244.994 46.9213 246.613 48.6681 247.119C54.1248 248.698 67.4251 251.56 90.6096 250.884C114.708 250.181 129.933 247.261 135.826 245.908C137.497 245.524 138.736 244.114 138.945 242.385L139.641 236.642H45.7296Z" fill="#FFC150"/>
<g opacity="0.44">
<path d="M45.7296 236.642V243.147C45.7296 244.994 46.9213 246.613 48.6681 247.119C54.1248 248.698 67.4251 251.56 90.6096 250.884C114.708 250.181 129.933 247.261 135.826 245.908C137.497 245.524 138.736 244.114 138.945 242.385L139.641 236.642H45.7296Z" fill="#CA6140"/>
</g>
<path d="M139.641 236.642C139.641 239.571 118.315 243.367 92.3824 243.367C66.4492 243.367 45.7296 239.571 45.7296 236.642C45.7296 233.712 66.7522 231.337 92.6855 231.337C118.618 231.337 139.641 233.712 139.641 236.642Z" fill="#FFC150"/>
<path d="M92.6848 241.514C72.7531 241.514 51.5697 239.806 51.5697 236.642C51.5697 233.478 72.7531 231.77 92.6848 231.77C112.616 231.77 133.8 233.478 133.8 236.642C133.8 239.806 112.616 241.514 92.6848 241.514ZM92.6848 232.282C68.7572 232.282 52.0823 234.579 52.0823 236.641C52.0823 238.703 68.7577 241.001 92.6848 241.001C116.613 241.001 133.288 238.703 133.288 236.641C133.288 234.579 116.613 232.282 92.6848 232.282ZM54.5031 226.489L58.4385 227.604L55.3465 228.219C51.8336 228.916 49.0209 231.593 48.105 235.111L47.0424 239.191L46.4285 235.773C45.7154 231.807 42.6177 228.73 38.7005 228.097L35.6459 227.605L39.2867 226.758C42.8584 225.929 45.623 223.054 46.3594 219.405L47.0424 216.018L47.9521 219.67C48.7751 222.973 51.2746 225.575 54.5031 226.489Z" fill="white"/>
<path d="M129.915 239.555L133.85 240.67L130.758 241.284C127.245 241.982 124.432 244.658 123.516 248.176L122.454 252.256L121.84 248.839C121.127 244.872 118.029 241.795 114.112 241.163L111.057 240.67L114.698 239.824C118.27 238.994 121.034 236.119 121.771 232.47L122.454 229.083L123.363 232.736C124.187 236.038 126.686 238.64 129.915 239.555ZM79.8837 264.854L82.6263 265.63L80.4716 266.058C78.0236 266.544 76.0639 268.41 75.4255 270.862L74.6852 273.704L74.257 271.323C73.7603 268.559 71.6017 266.415 68.8722 265.974L66.7437 265.63L69.2806 265.041C71.7694 264.462 73.6957 262.459 74.2089 259.916L74.6847 257.556L75.319 260.101C75.8922 262.403 77.6345 264.217 79.8837 264.854Z" fill="white"/>
<path d="M210.227 86.1322C210.227 86.1322 194.685 117.213 184.77 145.369C183.232 149.757 181.822 154.088 180.625 158.201L179.087 158.216L178.702 158.231L169.585 158.317H169.2L148.373 158.534L144.114 158.578L141.92 158.607L137.86 158.65L131.136 158.723L125.894 158.781L112.318 158.911L111.919 158.926L105.936 158.983H105.552L103.472 159.012C104.355 155.84 105.31 152.567 106.293 149.25C113.159 126.424 122.433 100.905 133.672 82.8006L210.227 86.1322Z" fill="#94862E"/>
<path d="M192.506 101.137C192.493 101.11 192.472 101.088 192.447 101.073C192.422 101.057 192.393 101.05 192.363 101.05L135.509 98.5738C135.452 98.5738 135.381 98.6026 135.352 98.6604C126.975 112.159 120.038 131.32 114.924 148.41C113.877 151.902 112.875 155.408 111.918 158.925L112.316 158.91C113.274 155.393 114.276 151.888 115.322 148.396C120.394 131.392 127.289 112.376 135.608 98.9499L192.049 101.412C190.739 104.048 179.926 126.135 173.031 145.876C171.521 150.206 170.196 154.435 169.199 158.317H169.584C170.581 154.435 171.906 150.206 173.43 145.861C180.709 125.02 192.363 101.614 192.519 101.31C192.548 101.267 192.534 101.194 192.506 101.137Z" fill="white"/>
<path d="M202.435 99.2104C202.418 99.1843 202.394 99.1627 202.367 99.1476C202.34 99.1325 202.309 99.1243 202.278 99.1237C199.856 99.0223 197.676 97.7043 196.423 95.5899C195.155 93.4756 195.041 90.8826 196.081 88.6521C196.109 88.5943 196.095 88.5218 196.067 88.464C196.038 88.4204 195.981 88.3774 195.925 88.3774L138.985 85.9011C138.928 85.9011 138.856 85.9447 138.814 86.0024C137.446 88.3632 134.939 89.7537 132.275 89.6235C132.19 89.6087 132.147 89.6523 132.104 89.7101C122.488 106.511 114.482 128.859 108.456 148.99C107.416 152.394 106.462 155.74 105.55 158.984H105.935C106.872 155.629 107.841 152.284 108.841 148.947C114.867 128.902 122.83 106.699 132.375 90.0001H132.617C135.253 90.0001 137.689 88.6096 139.071 86.2925L195.626 88.7399C194.658 91.0281 194.828 93.65 196.096 95.7791C197.364 97.9224 199.558 99.2987 201.994 99.4868C196.808 110.552 188.717 128.583 182.79 145.457C181.251 149.845 179.856 154.147 178.701 158.231L179.086 158.216C180.24 154.132 181.636 149.83 183.188 145.442C189.143 128.496 197.278 110.392 202.449 99.3995C202.478 99.3406 202.464 99.2681 202.435 99.2104Z" fill="white"/>
<path d="M146.649 156.724C145.695 156.029 144.527 155.652 143.159 155.623C142.033 155.594 141.107 155.768 140.338 156.174C139.585 156.578 138.929 157.141 138.415 157.825C138.216 158.085 138.031 158.361 137.859 158.65L141.919 158.606C142.291 158.484 142.682 158.43 143.073 158.447C143.423 158.458 143.771 158.502 144.113 158.577L148.373 158.533C147.902 157.825 147.333 157.217 146.649 156.724ZM130.836 156.304C130.437 155.884 129.967 155.667 129.397 155.652C128.742 155.637 128.158 155.87 127.631 156.347C127.118 156.825 126.676 157.346 126.334 157.926C126.177 158.201 126.035 158.476 125.892 158.78L131.135 158.723C131.304 158.432 131.397 158.103 131.405 157.766C131.421 157.202 131.235 156.71 130.836 156.304ZM160.368 142.416C160.154 142.199 159.912 142.097 159.67 142.083L158.217 142.039C158.103 140.721 157.775 139.504 157.22 138.375C156.664 137.246 155.909 136.333 154.941 135.638C153.986 134.943 152.818 134.566 151.45 134.537C150.339 134.493 149.399 134.682 148.644 135.088C147.884 135.488 147.222 136.052 146.706 136.739C146.167 137.457 145.722 138.24 145.381 139.071C145.039 139.924 144.711 140.784 144.399 141.649L135.837 141.402C135.908 140.736 136.036 140.157 136.221 139.635C136.421 139.128 136.649 138.781 136.905 138.578C137.133 138.651 137.361 138.709 137.589 138.709C138.116 138.723 138.6 138.535 139.027 138.144C139.455 137.767 139.683 137.275 139.697 136.681C139.711 136.116 139.526 135.623 139.127 135.204C138.728 134.798 138.258 134.581 137.703 134.566C137.033 134.552 136.449 134.783 135.922 135.261C135.417 135.723 134.98 136.255 134.625 136.84C134.255 137.477 133.956 138.187 133.713 138.954C133.471 139.727 133.313 140.523 133.243 141.329L131.035 141.272C130.765 141.272 130.523 141.358 130.309 141.562C130.209 141.655 130.129 141.767 130.073 141.891C130.017 142.015 129.985 142.15 129.981 142.286C129.981 142.575 130.067 142.822 130.266 143.039C130.466 143.242 130.708 143.358 130.979 143.358L133.272 143.431C133.355 144.545 133.655 145.632 134.155 146.631C134.417 147.167 134.758 147.661 135.167 148.095C135.492 148.466 135.866 148.793 136.278 149.065C137.204 149.702 138.372 150.035 139.782 150.079C141.065 150.122 142.105 149.832 142.931 149.224C143.512 148.806 144.018 148.292 144.426 147.703C144.626 147.443 144.811 147.153 144.968 146.863C145.496 145.869 145.962 144.844 146.364 143.793L155.538 144.054C155.447 144.817 155.246 145.564 154.94 146.27C154.792 146.628 154.595 146.964 154.356 147.269C154.183 147.509 153.983 147.728 153.758 147.921C153.446 147.737 153.094 147.633 152.732 147.616C152.205 147.602 151.721 147.79 151.308 148.167C150.894 148.529 150.681 149.022 150.667 149.615C150.638 150.412 150.966 151.02 151.635 151.426C151.963 151.614 152.29 151.716 152.618 151.716C153.109 151.732 153.594 151.606 154.015 151.354C154.47 151.093 154.883 150.789 155.254 150.441C156.103 149.619 156.785 148.64 157.262 147.559C157.332 147.419 157.389 147.274 157.433 147.124C157.832 146.168 158.075 145.169 158.203 144.14L159.613 144.169C159.855 144.184 160.097 144.083 160.325 143.879C160.429 143.789 160.513 143.678 160.572 143.553C160.631 143.428 160.663 143.293 160.667 143.155C160.667 142.88 160.567 142.633 160.368 142.416ZM143.615 143.72C143.216 144.748 142.717 145.588 142.147 146.268C141.563 146.949 140.78 147.282 139.797 147.253C138.529 147.21 137.589 146.819 137.005 146.066C136.424 145.319 136.041 144.437 135.893 143.502L143.615 143.72ZM147.147 141.735C147.632 140.532 148.187 139.49 148.785 138.621C149.398 137.752 150.253 137.318 151.378 137.361C152.674 137.389 153.657 137.867 154.327 138.795C154.996 139.721 155.409 140.779 155.552 141.967L147.147 141.735ZM168.915 120.517C168.701 120.314 168.473 120.198 168.217 120.198L166.778 120.154C166.665 118.836 166.323 117.605 165.767 116.49C165.211 115.361 164.456 114.448 163.502 113.753C162.547 113.043 161.379 112.681 160.012 112.637C158.9 112.609 157.96 112.797 157.191 113.202C156.438 113.606 155.781 114.17 155.267 114.853C154.729 115.566 154.284 116.345 153.943 117.17C153.588 118.024 153.26 118.889 152.96 119.763L144.398 119.516C144.469 118.85 144.597 118.256 144.783 117.749C144.982 117.242 145.196 116.88 145.466 116.678C145.694 116.764 145.908 116.808 146.15 116.823C146.677 116.837 147.162 116.649 147.589 116.258C148.016 115.867 148.244 115.374 148.258 114.781C148.272 114.216 148.087 113.738 147.688 113.318C147.29 112.912 146.819 112.695 146.264 112.681C145.594 112.666 145.01 112.883 144.483 113.361C143.977 113.828 143.54 114.364 143.187 114.955C142.8 115.616 142.494 116.321 142.275 117.055C142.031 117.832 141.873 118.633 141.805 119.445L139.597 119.387C139.462 119.378 139.327 119.4 139.201 119.45C139.076 119.5 138.963 119.578 138.871 119.677C138.657 119.88 138.543 120.111 138.543 120.401C138.529 120.691 138.629 120.937 138.828 121.14C139.027 121.357 139.256 121.473 139.54 121.473L141.819 121.545C141.916 122.657 142.215 123.742 142.702 124.746C143.195 125.722 143.925 126.559 144.825 127.179C145.751 127.817 146.919 128.15 148.344 128.193C149.611 128.222 150.666 127.947 151.492 127.324C152.337 126.702 153.029 125.894 153.514 124.964C154.054 123.981 154.521 122.959 154.911 121.908L164.085 122.168C164.005 122.933 163.808 123.68 163.501 124.384C163.202 125.05 162.803 125.601 162.304 126.035C161.998 125.85 161.65 125.745 161.292 125.731C160.751 125.716 160.281 125.89 159.868 126.267C159.455 126.644 159.227 127.136 159.212 127.73C159.198 128.526 159.526 129.12 160.195 129.526C160.523 129.729 160.85 129.83 161.178 129.83C161.668 129.846 162.153 129.721 162.574 129.468C163.03 129.208 163.443 128.904 163.799 128.556C164.668 127.731 165.338 126.76 165.822 125.659C166.307 124.575 166.62 123.422 166.748 122.241L168.158 122.285C168.415 122.285 168.657 122.198 168.871 121.995C169.098 121.792 169.212 121.545 169.227 121.27C169.229 120.98 169.129 120.734 168.915 120.517ZM150.695 124.384C150.125 125.065 149.342 125.398 148.344 125.369C147.077 125.326 146.151 124.935 145.566 124.181C144.974 123.441 144.59 122.556 144.455 121.618L152.176 121.835C151.764 122.849 151.279 123.703 150.695 124.384ZM155.695 119.836C156.193 118.634 156.735 117.605 157.348 116.737C157.96 115.853 158.815 115.433 159.926 115.462C161.223 115.506 162.205 115.984 162.889 116.91C163.558 117.823 163.972 118.88 164.114 120.082L155.695 119.836Z" fill="white"/>
<g opacity="0.16">
<path d="M184.77 145.369C183.232 149.757 181.822 154.088 180.625 158.201L179.087 158.216L178.702 158.231L169.585 158.317H169.2L148.373 158.534L144.114 158.578L141.92 158.607L137.86 158.65L131.136 158.723L125.894 158.781L112.318 158.911L111.919 158.926L105.936 158.983H105.552L103.472 159.012C104.355 155.84 105.31 152.567 106.293 149.25C107.019 149.164 107.731 149.076 108.458 148.99L108.843 148.946C110.737 148.714 112.661 148.512 114.697 148.424C114.769 148.424 114.854 148.424 114.925 148.41C115.053 148.41 115.196 148.41 115.324 148.395L135.168 147.526L144.427 147.135L154.356 146.701C155.382 146.657 156.408 146.614 157.434 146.556C162.633 146.338 167.833 146.107 173.033 145.875C173.161 145.875 173.304 145.875 173.432 145.86C176.551 145.73 179.671 145.6 182.791 145.455C182.919 145.455 183.062 145.44 183.19 145.44C183.716 145.412 184.243 145.398 184.77 145.369Z" fill="#371005"/>
</g>
<path d="M241.662 42.6325C234.924 52.7688 227.933 63.5763 224.549 69.5536C219.853 77.8565 208.107 99.2919 199.789 114.496L191.077 124.852L188.639 130.476C176.088 126.884 180.739 114.959 182.423 105.075C184.197 94.686 192.828 83.5211 193.081 63.9785C193.334 44.4359 173.031 39.6215 173.031 39.6215C173.031 39.6215 167.918 44.6897 161.762 50.8906C161.404 51.2633 161.047 51.636 160.674 52.0087C152.923 59.82 143.919 69.0767 141.325 72.3561C136.495 78.4382 145.38 94.9397 147.69 113.319C149.643 128.852 143.755 131.818 139.894 132.668C139.492 132.758 139.104 132.832 138.762 132.877C138.493 132.921 138.238 132.673 138.014 132.703C137.746 132.748 137.42 132.713 137.018 132.087C135.497 129.821 133.082 123.486 130.473 115.883C124.988 99.8289 118.653 78.0802 118.25 76.7237C118.235 76.7089 118.235 76.6789 118.235 76.6636C118.235 76.6636 113.674 94.4322 108.844 106.104C104.029 117.761 92.1043 120.817 89.5555 120.564C89.4848 120.523 89.4197 120.473 89.3618 120.415L89.3471 120.4C89.3023 120.325 89.2723 120.221 89.2428 120.102C88.7065 117.985 90.1072 108.892 91.8069 99.5162C93.8494 88.2318 96.3387 76.5305 96.3982 76.1726C96.3682 76.2026 96.294 76.262 96.1898 76.3515C94.8927 77.3949 88.1848 82.7615 82.7145 85.0418C76.6177 87.5759 65.4528 84.2817 63.932 80.7191V80.689C63.932 80.689 63.8873 80.5695 63.9473 80.3016C63.9473 80.2716 63.9621 80.2422 63.9774 80.1974C64.4543 78.9751 67.1526 76.3963 71.0727 73.1168C71.0874 73.1021 71.0874 73.0874 71.1027 73.0874C72.9214 71.5518 75.0233 69.8827 77.2742 68.1087C86.3672 60.9533 98.2028 52.3225 106.536 46.36C107.087 45.9573 107.624 45.5699 108.145 45.2125L111.037 43.1406C114.183 40.9044 116.27 39.4437 116.657 39.1605C116.598 39.1752 116.523 39.2199 116.404 39.2647C115.406 39.6668 111.977 40.9492 105.299 42.4099C97.1747 44.1839 83.4757 41.1429 82.9688 38.1019C82.9541 38.0271 82.9688 37.9529 82.9988 37.8634C83.5953 36.3132 101.195 28.5965 101.349 28.5319C113.419 23.4677 127.874 17.3999 133.964 15.2651C145.219 11.3195 146.396 10.7039 146.396 10.7039L150.227 8.94519H152.016C184.423 8.94519 214.012 20.0059 236.521 38.2367C238.285 39.6421 239.999 41.1083 241.662 42.6325Z" fill="#FF9285"/>
<path d="M161.763 50.8914C161.405 51.264 161.047 51.6367 160.675 52.0094C156.441 43.4828 148.257 36.9538 138.971 34.8071C139.239 34.3597 139.537 33.9128 139.805 33.4806C149.152 35.791 157.35 42.3347 161.763 50.8914Z" fill="#FFC150"/>
<path d="M199.789 114.497C194.631 123.933 190.8 130.969 190.8 130.969C190.074 130.83 189.353 130.666 188.639 130.477C188.073 129.18 187.849 127.69 187.879 126.273C187.938 123.322 188.833 120.37 190.413 117.866C191.531 116.107 193.096 114.512 195.108 113.945C196.286 113.617 198.522 113.647 199.789 114.497ZM139.895 132.668C139.18 132.832 138.362 132.776 137.877 132.611C135.184 131.694 133.798 125.572 130.474 115.883C131.771 115.123 134.23 114.035 134.395 114.318C137.346 119.788 139.224 125.84 139.85 132.027C139.865 132.236 139.895 132.445 139.895 132.668ZM95.19 111.382C94.3104 114.035 92.7154 116.39 90.9119 118.522C90.5245 118.969 89.9281 119.61 89.2422 120.102C87.7112 117.552 90.1065 108.892 91.8063 99.5162C93.2076 100.381 94.3404 101.692 95.011 103.198C96.1444 105.747 96.0549 108.728 95.19 111.382ZM78.3458 69.7773C76.2679 72.4315 73.9689 74.9049 71.4736 77.1711C70.2813 78.2445 69.029 79.273 67.583 79.9289C66.4315 80.433 65.1878 80.6918 63.9308 80.689C63.4987 79.4367 69.3422 74.3238 77.2724 68.1081C77.6304 68.6893 78.0031 69.2557 78.3458 69.7773ZM102.681 32.4503C99.1627 35.7298 94.4525 37.459 89.7117 38.2038C87.4014 38.5618 84.912 38.6807 82.7948 37.8017C83.3913 36.2514 91.4885 32.665 101.193 28.5954C101.7 29.9224 102.174 31.1238 102.681 32.4503Z" fill="#FFECDC"/>
<path d="M139.136 133.105C138.685 133.107 138.238 133.014 137.825 132.833C135.959 132.02 135.028 129.605 134.631 128.574C134.561 128.394 134.489 128.207 134.462 128.168C134.268 127.975 130.117 115.891 126.813 105.885C123.336 95.3543 118.994 81.7426 118.052 76.6976C116.915 70.5573 128.707 50.4732 138.799 34.7052C138.81 34.6872 138.825 34.6715 138.842 34.6587C138.993 34.4084 139.154 34.158 139.312 33.9105C139.425 33.7321 139.539 33.5554 139.647 33.3815C143.82 26.9069 146.97 22.2998 147.001 22.2539C147.03 22.2156 147.072 22.1898 147.12 22.1821C147.167 22.1743 147.216 22.1851 147.255 22.2123C147.295 22.2395 147.323 22.2809 147.332 22.3279C147.342 22.3749 147.333 22.4239 147.308 22.4646C147.277 22.51 144.131 27.1137 139.962 33.5803C139.855 33.753 139.74 33.9309 139.625 34.111C139.458 34.3721 139.289 34.6366 139.13 34.9017C139.117 34.9227 139.101 34.941 139.081 34.9555C130.846 47.8253 117.246 70.3001 118.419 76.6291C120.285 86.6317 134.656 127.755 134.759 127.946C134.797 127.977 134.843 128.091 134.977 128.44C135.358 129.427 136.251 131.739 137.974 132.49C138.748 132.828 139.617 132.809 140.556 132.434C140.602 132.416 140.653 132.417 140.699 132.436C140.744 132.456 140.78 132.493 140.798 132.539C140.817 132.585 140.816 132.636 140.796 132.681C140.777 132.727 140.74 132.763 140.694 132.781C140.155 132.997 139.634 133.105 139.136 133.105ZM89.5555 120.751C89.5228 120.751 89.4907 120.742 89.4626 120.726C88.0381 119.902 88.6022 116.298 89.3827 111.309C89.5062 110.521 89.6347 109.702 89.7599 108.861C90.6554 102.85 96.2582 74.6087 97.6272 68.6309C99.0053 62.622 102.541 58.0273 105.122 54.6736L105.273 54.4771C107.786 51.209 143.365 12.8596 143.724 12.4727C143.758 12.4371 143.804 12.4161 143.853 12.4142C143.903 12.4123 143.951 12.4297 143.987 12.4626C144.005 12.4792 144.02 12.4992 144.03 12.5214C144.04 12.5436 144.046 12.5677 144.047 12.5921C144.048 12.6166 144.044 12.641 144.035 12.6639C144.027 12.6869 144.014 12.708 143.997 12.7259C143.638 13.1133 108.072 51.4503 105.569 54.7042L105.418 54.9008C102.857 58.2278 99.3502 62.7851 97.9914 68.7142C96.6224 74.6892 91.023 102.91 90.1286 108.917C90.0063 109.734 89.8806 110.552 89.7514 111.368C89.0219 116.027 88.4464 119.708 89.6495 120.403C89.6923 120.428 89.7236 120.468 89.7364 120.516C89.7493 120.564 89.7426 120.615 89.718 120.658C89.7013 120.686 89.6775 120.709 89.649 120.726C89.6205 120.742 89.5883 120.751 89.5555 120.751Z" fill="#371005"/>
<path d="M63.9359 80.8797C63.8984 80.8794 63.8617 80.8682 63.8304 80.8474C63.7991 80.8266 63.7746 80.797 63.7598 80.7625C63.6901 80.5965 63.2449 79.01 69.1497 74.3627C75.0454 69.721 106.138 46.4309 106.452 46.1958L124.088 33.5072C124.129 33.4787 124.179 33.4671 124.227 33.475C124.276 33.483 124.32 33.5098 124.349 33.5497C124.378 33.5899 124.389 33.6399 124.381 33.6887C124.373 33.7375 124.346 33.7812 124.306 33.8102L106.672 46.496C106.361 46.7283 75.2726 70.0161 69.3797 74.6549C63.7235 79.108 64.1019 80.6112 64.1064 80.6254C64.1159 80.6477 64.1208 80.6717 64.1209 80.696C64.121 80.7202 64.1162 80.7442 64.1069 80.7666C64.0976 80.789 64.0838 80.8093 64.0665 80.8263C64.0492 80.8433 64.0287 80.8566 64.0062 80.8656C63.9839 80.8749 63.9601 80.8797 63.9359 80.8797Z" fill="#371005"/>
<path d="M60.6598 105.859L48.9172 117.269L62.5947 127.468L46.5479 122.384L45.2157 139.163L40.9179 122.652L25.9258 129.234L37.6684 117.824L23.991 107.625L40.0377 112.709L41.3699 95.9292L45.6677 112.44L60.6598 105.859ZM261.153 83.0232L249.41 94.4333L263.088 104.632L247.041 99.5479L245.709 116.328L241.411 99.8164L226.419 106.399L238.162 94.9884L224.484 84.7892L240.531 89.8738L241.863 73.0936L246.161 89.6053L261.153 83.0232ZM265.926 211.917L254.183 223.327L267.86 233.526L251.814 228.442L250.481 245.221L246.184 228.71L231.191 235.292L242.934 223.882L229.257 213.683L245.303 218.768L246.636 201.987L250.933 218.499L265.926 211.917Z" fill="#FFECDC"/>
<path d="M170.888 73.1479L174.974 74.2864L171.764 74.9134C169.977 75.2627 168.324 76.1079 166.995 77.3525C165.665 78.597 164.713 80.1906 164.247 81.951L163.144 86.1163L162.506 82.6267C162.145 80.6506 161.18 78.8354 159.743 77.4316C158.306 76.0277 156.469 75.1045 154.485 74.7894L151.314 74.2864L155.094 73.4227C156.909 73.0078 158.566 72.0792 159.868 70.7478C161.17 69.4164 162.061 67.7385 162.435 65.9144L163.144 62.4565L164.089 66.1857C164.508 67.8424 165.358 69.3588 166.552 70.5814C167.746 71.804 169.242 72.6894 170.888 73.1479ZM104.361 146.998L107.482 147.867L105.03 148.346C103.664 148.613 102.401 149.259 101.385 150.21C100.369 151.161 99.6418 152.379 99.2856 153.724L98.4428 156.906L97.9557 154.24C97.6799 152.73 96.9421 151.343 95.8443 150.271C94.7464 149.198 93.3426 148.493 91.8267 148.252L89.4042 147.868L92.2923 147.207C93.6792 146.89 94.9456 146.181 95.9403 145.164C96.9349 144.146 97.6159 142.864 97.9019 141.471L98.4434 138.828L99.165 141.677C99.4857 142.943 100.135 144.102 101.047 145.036C101.96 145.97 103.103 146.647 104.361 146.998ZM217.524 128.221L220.645 129.091L218.193 129.57C216.827 129.837 215.564 130.483 214.548 131.434C213.533 132.385 212.805 133.602 212.449 134.947L211.606 138.13L211.119 135.464C210.843 133.954 210.105 132.567 209.007 131.495C207.909 130.422 206.506 129.717 204.99 129.476L202.567 129.091L205.455 128.432C206.842 128.115 208.109 127.405 209.103 126.388C210.098 125.371 210.779 124.089 211.065 122.695L211.606 120.053L212.328 122.902C212.649 124.168 213.298 125.326 214.21 126.261C215.123 127.195 216.266 127.871 217.524 128.221Z" fill="white"/>
<path d="M256.086 141.598C255.297 145.392 254.447 149.174 253.537 152.942C250.536 165.345 246.879 177.581 242.581 189.597C242.285 190.434 241.981 191.269 241.671 192.101C240.258 195.964 238.772 199.801 237.214 203.608H236.171C239.668 195.058 242.821 186.37 245.622 177.567C245.786 177.075 245.95 176.598 246.084 176.121C248.525 168.413 250.693 160.622 252.583 152.762C253.493 148.99 254.343 145.203 255.132 141.403C255.192 141.15 255.46 140.986 255.714 141.031C255.836 141.061 255.942 141.136 256.011 141.241C256.08 141.346 256.107 141.474 256.086 141.598Z" fill="#371005"/>
<path d="M241.408 192.201C241.316 192.201 241.225 192.175 241.148 192.125C241.07 192.075 241.008 192.004 240.97 191.92C240.931 191.837 240.918 191.743 240.931 191.652C240.943 191.561 240.982 191.475 241.043 191.405C250.376 180.521 259.258 169.256 267.664 157.64C267.739 157.537 267.851 157.467 267.978 157.447C268.104 157.427 268.233 157.457 268.336 157.532C268.439 157.607 268.509 157.72 268.529 157.846C268.549 157.972 268.519 158.101 268.444 158.205C260.022 169.843 251.125 181.128 241.773 192.033C241.728 192.085 241.672 192.128 241.609 192.157C241.546 192.186 241.477 192.201 241.408 192.201ZM245.888 177.64C245.783 177.641 245.681 177.606 245.597 177.543C245.513 177.479 245.452 177.389 245.424 177.288C242.363 166.333 238.45 155.634 233.722 145.288C233.696 145.23 233.681 145.168 233.679 145.105C233.677 145.042 233.687 144.979 233.709 144.919C233.731 144.86 233.765 144.806 233.808 144.759C233.851 144.713 233.903 144.676 233.96 144.649C234.018 144.623 234.08 144.608 234.143 144.606C234.206 144.604 234.27 144.614 234.329 144.636C234.388 144.658 234.442 144.692 234.489 144.735C234.535 144.778 234.572 144.83 234.599 144.887C239.347 155.279 243.277 166.026 246.352 177.029C246.372 177.101 246.375 177.176 246.361 177.249C246.348 177.322 246.317 177.391 246.272 177.45C246.227 177.509 246.169 177.557 246.103 177.59C246.036 177.623 245.963 177.641 245.888 177.64Z" fill="#371005"/>
<path d="M241.25 146.696C241.25 150.161 238.442 152.969 234.977 152.969C231.512 152.969 228.704 150.161 228.704 146.696C228.704 143.232 231.512 140.423 234.977 140.423C238.442 140.423 241.25 143.232 241.25 146.696ZM260.437 146.696C260.437 150.161 257.629 152.969 254.165 152.969C250.7 152.969 247.892 150.161 247.892 146.696C247.892 143.232 250.7 140.423 254.165 140.423C257.629 140.423 260.437 143.232 260.437 146.696ZM272.613 158.873C272.613 162.338 269.805 165.146 266.341 165.146C262.876 165.146 260.068 162.338 260.068 158.873C260.068 155.409 262.876 152.6 266.341 152.6C269.805 152.6 272.613 155.408 272.613 158.873Z" fill="#CA6140"/>
<path d="M38.3313 153.266C39.121 157.061 39.9709 160.842 40.8807 164.61C43.8819 177.014 47.539 189.249 51.8367 201.266C52.133 202.103 52.4363 202.937 52.7463 203.77C54.1593 207.633 55.6453 211.47 57.2034 215.277H58.2467C54.7497 206.727 51.5971 198.039 48.7962 189.236C48.6325 188.744 48.4682 188.267 48.334 187.79C45.8932 180.082 43.7253 172.291 41.8345 164.431C40.9247 160.659 40.0748 156.872 39.2851 153.072C39.2256 152.819 38.9571 152.655 38.704 152.7C38.5818 152.73 38.4754 152.805 38.4063 152.91C38.3372 153.015 38.3104 153.142 38.3313 153.266Z" fill="#371005"/>
<path d="M53.0091 203.87C53.1014 203.87 53.1917 203.844 53.2694 203.794C53.3471 203.744 53.4089 203.673 53.4474 203.589C53.4859 203.506 53.4995 203.412 53.4865 203.321C53.4736 203.23 53.4347 203.144 53.3745 203.074C44.0407 192.189 35.1594 180.925 26.7534 169.308C26.7163 169.257 26.6695 169.214 26.6156 169.181C26.5618 169.148 26.5019 169.125 26.4395 169.115C26.3771 169.105 26.3133 169.108 26.2518 169.122C26.1903 169.137 26.1323 169.164 26.0811 169.201C26.0299 169.238 25.9864 169.285 25.9533 169.339C25.9202 169.392 25.898 169.452 25.888 169.515C25.878 169.577 25.8804 169.641 25.8951 169.702C25.9097 169.764 25.9364 169.822 25.9734 169.873C34.3946 181.511 43.2923 192.797 52.6438 203.701C52.6889 203.754 52.7449 203.796 52.808 203.826C52.871 203.855 52.9397 203.87 53.0091 203.87ZM48.5289 189.309C48.6341 189.31 48.7365 189.275 48.8203 189.212C48.9041 189.148 48.9647 189.058 48.9928 188.957C52.0542 178.002 55.9668 167.303 60.6947 156.957C60.7478 156.841 60.7526 156.708 60.708 156.588C60.6634 156.469 60.573 156.372 60.4568 156.318C60.3406 156.265 60.2081 156.261 60.0884 156.305C59.9687 156.35 59.8716 156.44 59.8185 156.556C55.0698 166.948 51.1402 177.695 48.0656 188.698C48.0453 188.77 48.0419 188.845 48.0557 188.918C48.0695 188.991 48.1 189.06 48.1449 189.119C48.1899 189.178 48.2479 189.226 48.3145 189.259C48.3812 189.292 48.4545 189.31 48.5289 189.309Z" fill="#371005"/>
<path d="M53.1672 158.365C53.1672 161.83 55.9754 164.638 59.4402 164.638C62.9049 164.638 65.7131 161.83 65.7131 158.365C65.7131 154.901 62.9049 152.092 59.4402 152.092C55.9754 152.092 53.1672 154.901 53.1672 158.365ZM33.9802 158.365C33.9802 161.83 36.7884 164.638 40.2531 164.638C43.7178 164.638 46.5261 161.83 46.5261 158.365C46.5261 154.901 43.7178 152.092 40.2531 152.092C36.7884 152.092 33.9802 154.901 33.9802 158.365ZM21.8036 170.541C21.8036 174.006 24.6118 176.814 28.0765 176.814C31.5412 176.814 34.3495 174.006 34.3495 170.541C34.3495 167.077 31.5412 164.269 28.0765 164.269C24.6118 164.269 21.8036 167.077 21.8036 170.541Z" fill="#CA6140"/>
</svg>
