<svg width="335" height="112" viewBox="0 0 335 112" fill="none" xmlns="http://www.w3.org/2000/svg">
<path d="M157.352 80.5249C157.445 80.7934 157.634 81.018 157.882 81.1556C158.131 81.2933 158.421 81.3342 158.698 81.2706C166.975 79.3595 175.191 77.189 183.332 74.7623C183.479 74.7186 183.616 74.6459 183.734 74.5485C183.853 74.4511 183.951 74.331 184.022 74.1952C184.094 74.0593 184.138 73.9106 184.151 73.7577C184.164 73.6048 184.146 73.4508 184.099 73.3048C180.401 62.0219 176.805 51.4525 174.556 40.5992C174.525 40.4465 174.463 40.3017 174.374 40.1736C174.285 40.0455 174.171 39.9369 174.039 39.8543C173.907 39.7718 173.759 39.7171 173.605 39.6934C173.451 39.6698 173.294 39.6779 173.143 39.717L149.43 45.831C149.138 45.9064 148.888 46.0928 148.732 46.3502C148.577 46.6077 148.528 46.9158 148.596 47.2088C151.192 58.263 153.552 69.5597 157.352 80.5249ZM172.554 42.2455C174.778 52.528 178.178 62.6264 181.544 72.8905C174.151 75.0717 166.697 77.0404 159.19 78.7943C155.748 68.6176 153.578 58.4395 151.094 47.778L172.554 42.2455Z" fill="#FF4603"/>
<path d="M163.387 68.6805C163.463 68.973 163.652 69.2234 163.912 69.3777C164.172 69.5321 164.482 69.5779 164.776 69.5054C165.069 69.4328 165.322 69.2477 165.48 68.99C165.639 68.7323 165.689 68.4227 165.62 68.1282L161.915 53.1356C161.881 52.987 161.817 52.8468 161.728 52.7231C161.639 52.5993 161.526 52.4945 161.396 52.4148C161.266 52.3351 161.121 52.282 160.971 52.2586C160.82 52.2352 160.666 52.242 160.518 52.2786C160.37 52.3152 160.231 52.3809 160.108 52.4718C159.986 52.5627 159.883 52.6771 159.805 52.8082C159.727 52.9393 159.676 53.0846 159.655 53.2356C159.634 53.3867 159.643 53.5404 159.681 53.6879L163.387 68.6805ZM168.49 62.0373C168.567 62.3278 168.756 62.5763 169.014 62.7297C169.273 62.8831 169.581 62.9291 169.874 62.8579C170.166 62.7867 170.418 62.604 170.578 62.3488C170.737 62.0936 170.79 61.7863 170.725 61.4926L168.809 53.6419C168.774 53.4947 168.71 53.3559 168.621 53.2336C168.532 53.1113 168.419 53.0078 168.29 52.9292C168.161 52.8506 168.017 52.7984 167.868 52.7756C167.718 52.7528 167.565 52.7599 167.419 52.7965C167.122 52.8691 166.867 53.0563 166.709 53.3169C166.551 53.5775 166.503 53.8903 166.575 54.1865L168.49 62.0373Z" fill="#FF4603"/>
<path d="M122.984 59.7773C126.181 59.2879 129.708 60.4309 132.082 62.6157C136.126 66.3316 136.932 72.9258 132.741 77.5899C130.176 79.5645 129.127 79.0919 128.693 80.0156C128.594 80.2428 128.572 80.496 128.631 80.7367C128.266 81.6879 127.936 82.007 128.076 82.6545C131.649 99.1952 131.488 98.7242 132.037 99.4637C132.29 99.8058 132.712 100.001 133.148 100.062C133.316 100.161 133.506 100.216 133.7 100.222C133.716 100.222 133.731 100.217 133.745 100.217C136.161 101.088 140.114 100.272 142.071 99.8411C166.536 94.4451 191.121 89.3699 216.017 86.5729C217.202 86.441 217.502 84.8853 216.464 84.3007C215.18 83.5781 213.733 83.1239 212.254 82.8693C212.338 82.7864 212.427 82.7082 212.484 82.6023C212.564 82.4514 212.609 82.2845 212.617 82.1139C212.624 81.9432 212.593 81.7731 212.527 81.6158C209.604 74.6641 208.842 71.275 208.446 63.4794C208.438 63.3248 208.399 63.1733 208.332 63.034C208.264 62.8947 208.169 62.7704 208.052 62.6687C207.936 62.567 207.8 62.4899 207.652 62.4421C207.505 62.3942 207.35 62.3765 207.195 62.3901C201.594 62.8918 195.945 59.0976 194.829 54.1083C193.705 49.079 197.306 43.0464 202.533 41.1991C202.802 41.1041 203.027 40.9124 203.162 40.6612C203.298 40.4099 203.336 40.1172 203.268 39.8398C201.525 32.7516 200.538 29.7076 198.791 22.601C198.718 22.3059 198.532 22.0515 198.272 21.8934C198.012 21.7353 197.701 21.6863 197.405 21.7571C172.686 27.6594 148.133 33.8869 121.512 38.3715C121.271 38.4091 121.048 38.5252 120.88 38.7019C120.711 38.8785 120.605 39.1059 120.578 39.3488C119.857 40.3139 118.686 40.9091 118.936 42.2501C119.993 47.8762 120.971 53.5022 122.028 59.1283C122.111 59.5733 122.537 59.8433 122.984 59.7758V59.7773ZM196.83 24.2595C198.334 30.2891 199.277 33.3361 200.793 39.4194C194.983 42.0169 191.27 48.7353 192.583 54.61C193.838 60.2222 199.607 64.7391 206.212 64.7391C206.614 71.5204 207.424 75.1873 209.868 81.2092C187.361 85.7383 162.776 91.1174 134.81 97.6302C134.563 91.1189 133.653 87.541 131.221 81.1632C137.045 78.624 140.723 72.2538 139.537 66.4283C138.334 60.5306 132.191 55.8803 125.816 55.842C124.688 49.6283 124.144 46.503 123.044 40.4473C148.914 36.0318 172.962 29.9746 196.83 24.2595ZM193.668 11.7508C193.39 11.8752 193.172 12.1051 193.063 12.3899C192.954 12.6747 192.962 12.9911 193.086 13.2697L195.623 18.9433C195.684 19.0812 195.772 19.2057 195.882 19.3095C195.992 19.4134 196.121 19.4947 196.262 19.5487C196.403 19.6026 196.553 19.6283 196.704 19.6242C196.855 19.6202 197.004 19.5864 197.141 19.5248C197.279 19.4633 197.404 19.3751 197.508 19.2655C197.612 19.1559 197.693 19.0268 197.747 18.8858C197.801 18.7447 197.826 18.5945 197.822 18.4435C197.818 18.2925 197.785 18.1438 197.723 18.0059L195.187 12.3323C194.926 11.7493 194.248 11.4884 193.668 11.7508ZM204.797 11.6403C204.678 11.5472 204.542 11.4785 204.396 11.4383C204.25 11.3981 204.097 11.3872 203.947 11.4062C203.797 11.4251 203.652 11.4736 203.521 11.5488C203.389 11.624 203.274 11.7245 203.182 11.8444C201.727 13.7196 200.624 15.8438 199.929 18.1133C199.881 18.2587 199.862 18.4124 199.874 18.5652C199.885 18.7181 199.927 18.867 199.998 19.0034C200.068 19.1397 200.164 19.2607 200.282 19.3591C200.399 19.4576 200.535 19.5316 200.682 19.5768C200.828 19.622 200.982 19.6374 201.135 19.6222C201.287 19.6071 201.435 19.5616 201.57 19.4884C201.705 19.4152 201.823 19.3159 201.919 19.1962C202.015 19.0765 202.086 18.9389 202.128 18.7914C202.742 16.7864 203.716 14.9097 205.001 13.2528C205.188 13.0118 205.271 12.7067 205.233 12.4044C205.195 12.1021 205.038 11.8273 204.797 11.6403ZM203.535 23.1548C205.498 23.0632 207.45 22.8133 209.372 22.4077C209.524 22.3801 209.668 22.3225 209.797 22.2383C209.926 22.154 210.036 22.0447 210.122 21.917C210.208 21.7893 210.267 21.6456 210.296 21.4946C210.326 21.3436 210.324 21.1882 210.292 21.0376C210.261 20.8871 210.199 20.7445 210.111 20.6182C210.023 20.4919 209.911 20.3845 209.781 20.3024C209.651 20.2203 209.505 20.1651 209.354 20.1401C209.202 20.1152 209.046 20.1209 208.897 20.1569C207.096 20.5362 205.267 20.7701 203.429 20.8565C203.278 20.8636 203.13 20.9004 202.993 20.9648C202.856 21.0292 202.733 21.1199 202.631 21.2317C202.53 21.3436 202.451 21.4744 202.4 21.6166C202.349 21.7589 202.326 21.9099 202.333 22.0609C202.364 22.7283 202.958 23.2039 203.535 23.1548Z" fill="#FF4603"/>
<rect opacity="0.2" y="96" width="335" height="5" rx="2.5" fill="#585456"/>
<rect y="96" width="335" height="5" rx="2.5" fill="#FFCC00"/>
</svg>
