<svg width="24" height="24" viewBox="0 0 24 24" fill="none" xmlns="http://www.w3.org/2000/svg">
<path d="M10.827 5.46511L10.392 3.14111M10.827 5.46511C12.1984 5.2626 13.5948 5.60154 14.7207 6.41021C15.8467 7.21889 16.6139 8.43387 16.86 9.79811L17.191 11.5671C17.631 13.9121 19.574 14.1551 19.791 15.3281C19.901 15.9141 20.011 16.4991 19.481 16.5991L6.78101 18.9761C6.25201 19.0751 6.14201 18.4881 6.03201 17.9021C5.81301 16.7301 7.53801 15.8001 7.10001 13.4551C6.88101 12.2861 7.31801 14.6171 6.77001 11.6861C6.50626 10.3252 6.78226 8.91512 7.5396 7.7541C8.29695 6.59307 9.47624 5.77219 10.828 5.46511H10.827ZM3.78101 9.87511C3.92401 7.99811 4.60301 6.41411 5.86701 5.01911M8.51301 18.6521C8.77385 19.3953 9.27965 20.0277 9.94734 20.4455C10.615 20.8634 11.405 21.0417 12.1874 20.9514C12.9699 20.861 13.6983 20.5073 14.2532 19.9483C14.8081 19.3893 15.1564 18.6582 15.241 17.8751L15.331 17.3751L8.51301 18.6521Z" stroke="white" stroke-width="2" stroke-linecap="round" stroke-linejoin="round"/>
</svg>
